<svg id="svg" version="1.1" xmlns="http://www.w3.org/2000/svg" xmlns:xlink="http://www.w3.org/1999/xlink" width="400" height="139.86013986013987" viewBox="0, 0, 400,139.86013986013987"><g id="svgg"><path id="path0" d="M56.801 28.814 L 56.263 29.294 56.470 31.583 C 56.760 34.801,57.214 37.010,57.744 37.785 C 58.450 38.819,58.818 40.355,59.166 43.733 C 59.502 46.980,59.906 48.863,60.481 49.859 C 61.034 50.815,61.631 53.023,61.829 54.840 C 62.454 60.591,62.660 61.635,63.509 63.333 C 64.282 64.879,64.412 65.471,64.826 69.333 C 65.179 72.634,65.417 73.674,66.180 75.250 C 66.880 76.694,67.309 78.568,67.593 81.417 C 67.975 85.247,68.274 86.785,68.854 87.917 C 69.724 89.613,69.989 90.621,70.253 93.233 C 70.643 97.086,70.960 98.675,71.610 100.032 C 72.321 101.517,72.931 103.824,73.076 105.583 C 73.271 107.935,73.685 110.573,73.918 110.935 C 74.479 111.809,76.279 112.000,83.967 112.000 L 90.947 112.000 91.370 111.208 C 91.689 110.611,91.821 110.049,91.908 108.917 C 92.091 106.529,92.640 104.353,93.467 102.732 C 94.027 101.633,94.337 100.126,94.674 96.852 C 95.026 93.425,95.270 92.400,96.083 90.917 C 96.722 89.750,97.046 88.160,97.425 84.328 C 97.713 81.416,98.130 79.617,98.913 77.917 C 99.603 76.420,99.937 75.036,100.161 72.750 C 100.493 69.364,101.170 66.465,101.820 65.638 C 102.302 65.025,102.642 63.476,102.917 60.637 C 103.371 55.943,103.772 54.132,104.596 53.052 C 105.118 52.368,105.400 51.051,105.751 47.667 C 106.133 43.982,106.855 40.988,107.555 40.190 C 107.922 39.770,108.293 37.971,108.498 35.615 C 108.600 34.441,108.828 32.604,109.005 31.532 C 109.182 30.460,109.328 29.502,109.330 29.401 C 109.332 29.301,108.967 29.020,108.519 28.776 L 107.705 28.333 102.090 28.333 L 96.474 28.333 96.004 28.803 C 95.595 29.213,95.520 29.444,95.424 30.595 C 95.060 34.977,94.881 35.821,94.046 37.083 C 93.578 37.792,93.261 39.930,92.575 47.000 C 92.207 50.795,91.933 52.223,91.345 53.417 C 90.670 54.789,90.379 56.283,90.170 59.444 C 89.874 63.917,89.522 66.401,88.889 68.490 C 87.466 73.188,87.493 73.047,87.252 76.917 C 86.975 81.362,86.395 84.521,85.178 88.212 C 84.717 89.608,84.259 91.136,84.160 91.608 C 83.206 96.147,81.094 94.610,80.576 89.000 C 80.128 84.155,79.850 82.538,79.321 81.703 C 78.608 80.580,78.372 79.650,78.166 77.167 C 77.417 68.141,77.123 65.807,76.651 65.144 C 75.737 63.861,75.400 62.097,75.001 56.510 C 74.768 53.253,74.259 50.351,73.640 48.750 C 72.869 46.755,72.517 44.714,72.250 40.702 C 71.964 36.389,71.500 33.593,70.750 31.667 C 70.447 30.887,70.173 30.066,70.141 29.841 C 70.106 29.595,69.795 29.212,69.362 28.882 L 68.641 28.333 62.990 28.333 L 57.339 28.333 56.801 28.814 M123.692 28.834 L 123.000 29.335 123.000 69.966 L 123.000 110.597 123.715 111.299 L 124.429 112.000 130.047 112.000 L 135.665 112.000 136.166 111.308 L 136.667 110.617 136.667 69.962 L 136.667 29.308 136.179 28.821 L 135.692 28.333 130.038 28.333 L 124.383 28.333 123.692 28.834 M157.283 28.830 L 156.500 29.326 156.500 69.935 L 156.500 110.544 157.228 111.272 L 157.956 112.000 163.623 112.000 L 169.289 112.000 169.728 111.337 L 170.167 110.674 170.167 93.962 C 170.168 74.507,170.181 74.307,171.552 73.027 C 172.192 72.430,172.636 72.837,173.770 75.056 C 174.292 76.080,174.860 77.016,175.032 77.138 C 175.852 77.720,176.196 78.333,176.828 80.335 C 177.366 82.043,177.590 82.522,178.065 82.982 C 178.792 83.687,179.196 84.632,179.675 86.750 C 180.023 88.289,180.106 88.468,180.757 89.083 C 181.599 89.878,182.017 90.679,182.410 92.250 C 182.847 94.000,182.982 94.280,183.621 94.767 C 184.359 95.331,184.904 96.520,185.236 98.294 C 185.529 99.860,185.814 100.506,186.370 100.871 C 186.903 101.220,187.585 102.535,187.908 103.833 C 188.290 105.371,188.629 106.076,189.183 106.486 C 189.789 106.934,190.430 108.184,190.744 109.531 C 191.115 111.122,191.341 111.330,193.089 111.699 C 195.341 112.175,205.364 112.077,205.743 111.576 C 206.338 110.789,206.120 109.265,205.333 108.714 C 204.781 108.328,204.188 107.130,203.824 105.670 C 203.423 104.060,202.888 102.925,202.250 102.333 C 201.662 101.788,201.256 100.975,200.917 99.669 C 200.576 98.353,200.007 97.214,199.417 96.667 C 198.885 96.173,198.421 95.310,198.253 94.500 C 198.019 93.367,197.319 91.865,196.741 91.251 C 196.034 90.502,195.570 89.629,195.407 88.742 C 195.222 87.735,194.562 86.359,193.925 85.654 C 193.190 84.840,192.924 84.316,192.585 83.005 C 192.257 81.739,191.677 80.544,191.167 80.084 C 190.593 79.564,190.050 78.516,189.750 77.345 C 189.411 76.024,188.843 74.883,188.250 74.333 C 187.665 73.791,187.268 72.995,186.939 71.709 C 186.639 70.530,186.141 69.475,185.660 68.993 C 185.201 68.534,185.211 68.478,186.411 64.747 C 187.432 61.577,187.528 61.361,188.203 60.728 C 188.837 60.132,188.991 59.828,189.583 57.990 C 190.169 56.175,190.341 55.829,191.000 55.153 C 191.658 54.478,191.831 54.132,192.417 52.317 C 193.002 50.501,193.170 50.165,193.801 49.547 C 194.420 48.942,194.609 48.573,195.172 46.881 C 195.770 45.081,195.893 44.854,196.641 44.167 C 197.299 43.563,197.514 43.222,197.745 42.420 C 198.207 40.815,198.902 39.445,199.514 38.934 C 200.255 38.316,200.293 38.240,200.763 36.483 C 201.273 34.580,201.532 34.073,202.422 33.236 C 202.821 32.861,203.194 32.336,203.252 32.069 C 203.311 31.802,203.502 31.096,203.678 30.500 L 203.998 29.417 203.418 28.875 L 202.838 28.333 197.227 28.333 L 191.615 28.333 191.055 28.760 C 190.748 28.995,190.385 29.452,190.250 29.777 C 190.114 30.101,189.661 30.681,189.242 31.065 C 188.515 31.733,188.460 31.850,188.014 33.674 C 187.422 36.094,187.317 36.344,186.524 37.207 C 185.993 37.784,185.753 38.289,185.237 39.917 C 184.674 41.690,184.515 42.006,183.828 42.709 C 183.135 43.420,182.988 43.715,182.419 45.543 C 181.858 47.350,181.701 47.668,181.051 48.322 C 180.411 48.965,180.228 49.329,179.624 51.152 C 179.030 52.945,178.832 53.343,178.234 53.941 C 177.636 54.539,177.436 54.940,176.828 56.765 C 176.203 58.641,176.033 58.975,175.386 59.605 C 174.915 60.063,174.443 60.782,174.066 61.617 C 173.198 63.544,173.160 63.611,172.646 64.103 C 172.057 64.668,171.556 64.505,170.939 63.548 C 170.228 62.446,170.167 60.919,170.167 44.461 L 170.167 29.229 169.699 28.781 L 169.232 28.333 163.649 28.333 L 158.065 28.333 157.283 28.830 M219.033 28.883 L 218.500 29.433 218.500 69.938 L 218.500 110.443 219.016 111.221 L 219.531 112.000 225.191 112.000 L 230.850 112.000 231.171 111.292 C 231.669 110.195,231.667 91.737,231.169 87.740 C 230.878 85.410,230.837 84.057,230.835 76.741 L 230.833 68.398 230.421 67.840 C 229.473 66.554,228.946 60.737,229.654 59.364 C 230.611 57.509,231.384 57.776,232.303 60.280 C 232.568 61.004,232.946 61.546,233.796 62.418 C 234.789 63.438,234.971 63.725,235.227 64.668 C 235.859 66.994,236.214 67.868,236.808 68.555 C 237.517 69.375,237.777 69.953,238.503 72.333 C 238.928 73.726,239.168 74.225,239.676 74.778 C 240.298 75.454,240.633 76.319,241.486 79.455 C 241.614 79.925,241.947 80.424,242.487 80.956 C 243.345 81.800,243.718 82.684,243.936 84.395 C 244.075 85.479,244.532 86.392,245.253 87.025 C 245.831 87.533,246.384 88.738,246.584 89.930 C 246.829 91.384,247.344 92.608,248.020 93.343 C 248.669 94.049,249.333 95.269,249.333 95.755 C 249.333 96.574,250.238 98.722,250.916 99.518 C 251.512 100.216,251.757 100.714,252.171 102.068 C 252.454 102.993,252.762 103.995,252.857 104.294 C 252.951 104.594,253.282 105.108,253.592 105.437 C 254.218 106.101,254.700 107.243,255.202 109.257 C 255.799 111.648,256.811 112.000,263.078 112.000 L 267.174 112.000 267.670 111.217 L 268.167 110.435 268.167 69.897 L 268.167 29.359 267.654 28.846 L 267.141 28.333 261.501 28.333 L 255.861 28.333 255.514 28.895 C 255.031 29.676,254.969 59.273,255.447 61.167 C 255.667 62.042,255.732 63.399,255.783 68.244 C 255.833 73.047,255.891 74.288,256.076 74.494 C 257.133 75.668,257.515 78.720,256.946 81.438 C 256.483 83.645,255.909 83.815,254.949 82.029 C 254.588 81.358,253.781 80.258,253.156 79.584 C 251.987 78.322,251.608 77.475,250.831 74.373 C 250.722 73.939,250.362 73.335,249.909 72.825 C 249.015 71.818,248.816 71.368,248.341 69.284 C 248.139 68.397,247.813 67.460,247.613 67.187 C 247.413 66.917,247.015 66.389,246.727 66.015 C 246.414 65.608,246.090 64.882,245.919 64.209 C 245.410 62.197,244.992 61.227,244.329 60.515 C 243.865 60.018,243.579 59.483,243.318 58.619 C 242.314 55.306,241.951 54.319,241.685 54.177 C 241.082 53.854,240.176 51.590,239.591 48.944 C 239.533 48.684,239.162 48.121,238.766 47.694 C 237.839 46.693,237.734 46.477,237.317 44.718 C 236.870 42.835,236.661 42.362,236.005 41.750 C 235.289 41.082,234.901 40.287,234.659 38.991 C 234.356 37.369,233.884 36.284,233.006 35.191 C 232.367 34.394,232.142 33.932,231.849 32.809 C 231.649 32.043,231.320 30.930,231.118 30.335 L 230.750 29.254 229.417 28.803 C 228.109 28.360,228.002 28.351,223.824 28.342 L 219.565 28.333 219.033 28.883 M300.093 28.875 C 299.625 29.344,299.537 29.571,299.436 30.569 C 299.294 31.964,298.778 33.565,298.245 34.268 C 297.681 35.011,297.238 37.003,296.919 40.221 C 296.594 43.513,296.350 44.558,295.587 45.921 C 294.950 47.060,294.687 48.275,294.160 52.500 C 293.628 56.765,293.376 57.747,292.492 59.006 C 292.109 59.550,291.694 61.573,291.486 63.907 C 291.177 67.371,290.706 69.333,289.881 70.581 C 289.314 71.440,289.078 72.615,288.586 77.013 C 288.182 80.617,287.698 82.581,286.920 83.768 C 286.593 84.268,285.941 87.764,285.588 90.915 C 285.296 93.526,284.947 94.821,284.266 95.821 C 283.632 96.752,283.337 98.027,283.070 101.000 C 282.778 104.235,282.378 106.011,281.605 107.500 C 280.616 109.404,280.474 111.314,281.302 111.572 C 283.132 112.142,291.331 112.185,293.621 111.637 C 295.668 111.148,295.611 111.297,296.092 105.250 C 296.742 97.100,296.650 97.164,307.616 97.171 C 318.409 97.178,319.332 97.419,319.334 100.233 C 319.336 103.639,319.950 107.267,320.751 108.596 C 321.060 109.110,321.362 109.749,321.420 110.016 C 321.479 110.282,321.865 110.839,322.279 111.252 L 323.031 112.004 328.718 111.961 L 334.406 111.917 334.794 111.250 C 335.510 110.019,334.954 105.823,333.841 104.069 C 333.123 102.937,332.890 102.040,332.576 99.201 C 332.166 95.498,331.594 92.779,330.937 91.417 C 330.294 90.082,329.901 88.597,329.747 86.917 C 329.366 82.771,328.924 80.393,328.432 79.850 C 327.823 79.177,327.142 76.352,326.762 72.917 C 326.459 70.179,326.128 68.762,325.497 67.500 C 324.874 66.252,324.381 64.399,324.168 62.500 C 323.729 58.585,323.628 57.852,323.381 56.833 C 323.237 56.237,322.951 55.525,322.747 55.250 C 322.016 54.267,321.454 51.705,321.154 47.991 C 320.940 45.355,320.474 43.329,319.910 42.590 C 319.130 41.566,318.609 39.483,318.409 36.583 C 318.103 32.140,317.197 29.571,315.666 28.800 L 314.750 28.339 307.692 28.336 L 300.633 28.333 300.093 28.875 M309.928 47.750 C 310.444 48.850,310.787 51.064,311.012 54.742 C 311.198 57.783,311.388 58.796,312.398 62.105 C 313.036 64.197,313.635 67.952,313.843 71.167 C 314.051 74.373,314.473 76.811,314.973 77.684 C 315.529 78.658,315.812 79.827,316.171 82.634 L 316.519 85.352 316.174 86.717 C 315.899 87.804,315.709 88.202,315.245 88.666 L 314.662 89.250 308.970 89.304 C 301.872 89.371,301.201 89.185,300.020 86.820 C 299.294 85.368,299.393 84.431,300.415 83.076 C 300.822 82.537,301.125 80.630,301.499 76.250 C 301.976 70.672,302.488 67.725,303.182 66.572 C 303.704 65.704,303.996 64.055,304.257 60.500 C 304.810 52.954,305.685 49.780,307.808 47.621 C 309.247 46.159,309.181 46.155,309.928 47.750 " stroke="none" fill="#f3f6fc" fill-rule="evenodd"></path><path id="path1" d="M56.400 27.976 C 55.788 28.425,55.088 29.366,55.248 29.526 C 55.288 29.566,55.585 31.437,55.909 33.685 C 56.509 37.855,56.655 38.500,57.393 40.247 C 57.802 41.215,58.217 43.239,59.073 48.440 C 59.302 49.827,59.613 51.290,59.765 51.690 C 60.791 54.394,60.994 55.243,61.555 59.192 C 62.004 62.342,62.244 63.546,62.586 64.358 C 63.281 66.006,63.626 67.343,64.082 70.153 C 64.871 75.021,65.203 76.583,65.685 77.694 C 66.371 79.276,66.589 80.272,67.167 84.469 C 67.524 87.059,67.809 88.527,68.104 89.302 C 68.338 89.915,68.635 90.701,68.766 91.049 C 69.038 91.775,69.643 94.870,70.166 98.216 C 70.557 100.717,70.895 102.018,71.573 103.624 C 71.875 104.339,72.139 105.538,72.418 107.457 C 73.295 113.493,72.983 113.333,83.902 113.333 L 90.983 113.333 91.403 112.782 C 92.072 111.906,92.499 110.775,92.753 109.207 C 92.992 107.729,93.418 106.298,93.890 105.384 C 94.206 104.773,94.711 102.353,95.162 99.281 C 95.602 96.288,96.069 94.183,96.509 93.207 C 97.199 91.675,97.330 91.114,97.831 87.532 C 98.486 82.860,98.593 82.345,99.249 80.750 C 99.826 79.345,100.333 77.100,100.743 74.130 C 101.073 71.748,101.379 70.480,102.006 68.902 C 102.690 67.179,103.248 64.637,103.576 61.750 C 103.847 59.362,104.266 57.564,105.168 54.917 C 105.838 52.951,105.944 52.453,106.247 49.862 C 106.585 46.967,106.878 45.638,107.567 43.874 C 108.248 42.132,108.902 39.086,109.244 36.067 C 109.408 34.611,109.693 33.224,110.098 31.901 C 110.433 30.809,110.744 29.786,110.789 29.625 C 110.919 29.168,110.454 28.619,109.479 28.080 L 108.583 27.583 102.396 27.534 L 96.208 27.485 95.437 28.256 C 95.013 28.680,94.636 29.189,94.598 29.388 C 94.561 29.587,94.374 30.741,94.184 31.953 C 93.993 33.165,93.612 34.807,93.336 35.603 C 92.829 37.065,92.767 37.457,92.166 43.000 C 91.924 45.238,91.604 47.031,91.000 49.540 C 89.995 53.720,89.720 55.343,89.487 58.500 C 89.251 61.695,88.805 64.242,88.097 66.446 C 87.774 67.450,87.396 69.137,87.244 70.248 C 87.093 71.347,86.943 72.290,86.911 72.343 C 86.878 72.396,86.698 74.133,86.512 76.202 C 86.206 79.592,86.115 80.127,85.592 81.607 C 85.270 82.522,84.856 84.211,84.660 85.417 C 84.115 88.771,82.993 92.500,82.530 92.500 C 81.939 92.500,81.497 90.473,81.010 85.535 C 80.742 82.812,80.580 81.870,80.182 80.701 C 79.399 78.407,78.465 72.767,78.161 68.500 C 77.974 65.883,77.765 64.758,77.186 63.248 C 76.918 62.551,76.325 59.792,75.915 57.333 C 75.861 57.012,75.601 54.837,75.337 52.500 C 75.040 49.876,74.718 47.804,74.495 47.083 C 73.572 44.096,73.355 42.899,72.761 37.500 C 71.905 29.711,71.651 28.935,69.631 27.902 L 68.844 27.500 62.947 27.500 L 57.050 27.500 56.400 27.976 M123.417 27.859 C 123.050 28.048,122.506 28.435,122.208 28.718 L 121.667 29.232 121.667 70.018 L 121.667 110.803 122.330 111.643 C 122.695 112.105,123.320 112.674,123.720 112.908 L 124.446 113.333 130.107 113.333 L 135.768 113.333 136.291 112.792 C 136.578 112.494,137.004 111.837,137.238 111.333 L 137.663 110.417 137.665 69.900 L 137.667 29.383 137.191 28.727 C 136.268 27.452,136.545 27.499,129.964 27.507 C 124.355 27.514,124.053 27.531,123.417 27.859 M157.072 27.815 C 156.700 27.984,156.119 28.365,155.781 28.662 L 155.167 29.201 155.167 69.905 L 155.167 110.608 155.708 111.366 C 156.265 112.145,156.975 112.806,157.614 113.142 C 157.867 113.275,159.706 113.333,163.665 113.333 L 169.352 113.333 169.861 112.792 C 170.140 112.494,170.548 111.875,170.766 111.417 L 171.163 110.583 171.167 93.667 C 171.170 76.089,171.157 76.476,171.827 74.756 C 172.019 74.262,172.021 74.264,172.872 75.981 C 173.542 77.332,173.862 77.791,174.363 78.122 C 175.202 78.678,175.565 79.298,176.260 81.366 C 176.611 82.408,177.125 83.509,177.568 84.167 C 178.311 85.269,178.538 85.810,179.160 87.957 C 179.404 88.802,179.722 89.428,180.219 90.041 C 180.957 90.952,181.373 91.812,181.990 93.700 C 182.192 94.318,182.638 95.174,182.988 95.617 C 183.845 96.700,184.072 97.181,184.583 99.000 C 185.068 100.724,185.327 101.302,186.000 102.167 C 186.624 102.967,186.952 103.645,187.436 105.126 C 187.663 105.822,188.058 106.697,188.313 107.071 C 188.568 107.444,188.970 108.032,189.207 108.377 C 189.444 108.722,189.813 109.501,190.028 110.107 C 191.045 112.989,192.126 113.333,200.167 113.333 L 205.829 113.333 206.239 112.708 C 207.182 111.273,207.107 109.398,206.043 107.814 C 205.882 107.574,205.547 107.075,205.299 106.704 C 205.051 106.333,204.646 105.404,204.399 104.640 C 203.735 102.584,203.424 101.934,202.739 101.176 C 202.286 100.675,201.934 99.968,201.419 98.524 C 200.885 97.029,200.532 96.330,199.949 95.614 C 199.456 95.008,199.066 94.299,198.857 93.628 C 198.265 91.724,197.826 90.793,197.168 90.045 C 196.810 89.639,196.408 88.993,196.274 88.611 C 196.140 88.229,195.835 87.352,195.595 86.661 C 195.316 85.859,194.894 85.082,194.426 84.512 C 194.023 84.020,193.584 83.311,193.450 82.934 C 193.316 82.558,193.008 81.685,192.766 80.994 C 192.486 80.196,192.056 79.410,191.587 78.838 C 191.029 78.158,190.696 77.490,190.222 76.107 C 189.749 74.725,189.413 74.052,188.850 73.362 C 188.288 72.672,187.927 71.951,187.384 70.432 L 186.664 68.417 186.839 67.083 C 187.153 64.695,187.896 62.733,188.985 61.414 C 189.469 60.829,189.814 60.138,190.188 59.005 C 190.836 57.043,190.970 56.774,191.818 55.748 C 192.321 55.140,192.654 54.456,193.101 53.114 C 193.449 52.069,193.895 51.079,194.155 50.776 C 195.003 49.784,195.287 49.247,195.829 47.609 C 196.252 46.329,196.531 45.788,197.099 45.149 C 197.928 44.215,198.089 43.930,198.825 42.084 C 199.117 41.352,199.557 40.499,199.803 40.191 C 200.793 38.948,201.000 38.557,201.513 36.961 C 201.928 35.666,202.225 35.075,202.849 34.298 C 203.417 33.589,203.781 32.903,204.099 31.941 C 204.345 31.194,204.683 30.310,204.851 29.975 C 205.153 29.374,205.152 29.361,204.782 28.811 C 203.916 27.526,203.799 27.506,197.233 27.503 L 191.383 27.500 190.733 27.972 C 189.456 28.901,187.990 30.854,187.583 32.170 C 187.427 32.672,187.154 33.545,186.975 34.110 C 186.796 34.674,186.342 35.566,185.965 36.092 C 185.546 36.677,185.033 37.751,184.641 38.864 C 183.890 40.996,183.662 41.468,183.166 41.917 C 182.686 42.351,182.314 43.109,181.767 44.768 C 181.355 46.017,180.992 46.681,179.926 48.133 C 179.704 48.436,179.285 49.394,178.996 50.262 C 178.707 51.130,178.213 52.195,177.900 52.628 C 176.843 54.088,176.669 54.412,176.228 55.750 C 175.602 57.647,175.413 57.972,174.336 59.000 C 173.497 59.801,173.296 60.125,172.745 61.566 C 172.017 63.468,171.874 63.460,171.426 61.489 C 171.201 60.504,171.167 58.256,171.167 44.758 L 171.167 29.166 170.364 28.333 L 169.561 27.500 163.656 27.504 C 158.274 27.507,157.690 27.535,157.072 27.815 M218.476 28.310 L 217.667 29.119 217.668 69.851 L 217.670 110.583 218.060 111.417 C 218.274 111.875,218.679 112.494,218.958 112.792 L 219.467 113.333 225.124 113.333 C 231.556 113.333,230.986 113.466,231.752 111.793 L 232.185 110.846 232.093 99.215 C 231.873 71.524,231.791 67.865,231.366 66.750 C 230.923 65.590,230.955 65.732,230.980 65.042 C 231.009 64.258,231.455 63.904,232.578 63.772 C 233.875 63.620,234.249 64.105,235.069 67.000 C 235.395 68.154,235.736 68.909,236.325 69.782 C 236.898 70.632,237.335 71.588,237.828 73.068 C 238.211 74.216,238.708 75.426,238.932 75.757 C 239.570 76.697,240.112 77.843,240.512 79.098 C 240.987 80.589,241.256 81.113,241.932 81.868 C 242.299 82.277,242.606 82.897,242.841 83.701 C 243.631 86.407,243.893 87.046,244.587 87.970 C 245.365 89.005,245.827 90.036,246.168 91.500 C 246.454 92.731,247.035 94.009,247.494 94.417 C 248.037 94.899,248.557 96.027,249.068 97.833 C 249.314 98.704,249.719 99.707,249.966 100.061 C 250.900 101.395,251.178 101.970,251.825 103.898 C 252.221 105.076,252.770 106.307,253.178 106.935 C 253.557 107.515,254.121 108.722,254.432 109.616 C 255.126 111.607,255.499 112.009,257.349 112.760 L 258.750 113.328 263.024 113.331 L 267.299 113.333 267.838 112.719 C 269.110 111.270,268.992 115.611,268.996 70.020 L 269.000 29.289 268.658 28.736 C 267.894 27.500,267.892 27.500,261.468 27.500 C 255.021 27.500,255.460 27.416,254.769 28.783 C 254.380 29.554,254.361 59.393,254.748 61.750 C 254.933 62.875,254.997 64.813,255.004 69.500 C 255.013 74.503,255.063 75.883,255.255 76.417 C 255.387 76.783,255.496 77.106,255.497 77.134 C 255.506 77.294,254.244 77.667,253.693 77.667 C 252.930 77.667,252.418 76.805,251.612 74.163 C 251.330 73.239,250.923 72.384,250.437 71.694 C 249.916 70.956,249.535 70.130,249.167 68.944 C 248.506 66.816,248.207 66.106,247.647 65.333 C 246.973 64.403,246.670 63.746,246.150 62.092 C 245.888 61.262,245.309 59.965,244.863 59.210 C 244.397 58.423,243.743 56.929,243.329 55.710 C 242.913 54.485,242.301 53.089,241.885 52.418 C 241.478 51.761,240.904 50.461,240.571 49.440 C 240.246 48.443,239.778 47.326,239.531 46.958 C 239.285 46.590,238.952 46.092,238.793 45.853 C 238.633 45.613,238.234 44.614,237.906 43.633 C 237.546 42.553,237.020 41.405,236.574 40.727 C 235.798 39.546,235.633 39.155,234.902 36.773 C 234.646 35.939,234.206 34.958,233.893 34.523 C 233.013 33.299,232.734 32.696,232.194 30.845 C 231.284 27.728,230.716 27.500,223.852 27.500 L 219.286 27.500 218.476 28.310 M299.411 28.401 C 298.866 28.946,298.500 29.457,298.500 29.674 C 298.500 29.874,298.130 31.135,297.679 32.477 C 297.076 34.267,296.767 35.544,296.517 37.273 C 296.062 40.420,295.557 42.702,295.046 43.917 C 294.384 45.490,294.219 46.210,293.763 49.500 C 293.319 52.697,293.050 53.872,292.082 56.833 C 291.353 59.065,291.231 59.639,290.915 62.349 C 290.615 64.919,290.171 66.797,289.501 68.333 C 288.789 69.969,288.542 70.997,288.164 73.905 C 287.673 77.688,287.264 79.640,286.686 80.956 C 286.074 82.350,285.947 82.898,285.411 86.461 C 284.958 89.473,284.154 93.052,283.758 93.817 C 283.296 94.711,282.829 96.749,282.494 99.333 C 282.061 102.680,281.935 103.219,281.068 105.431 C 279.760 108.766,279.638 110.634,280.603 112.539 L 281.006 113.333 286.726 113.333 C 295.811 113.333,296.059 113.207,296.586 108.301 C 296.839 105.940,297.126 104.357,297.902 101.035 C 298.359 99.081,298.436 98.956,299.526 98.404 L 300.322 98.000 307.754 98.000 C 319.061 98.000,318.174 97.576,318.762 103.268 C 319.414 109.581,320.020 111.259,322.223 112.855 L 322.883 113.333 328.674 113.333 L 334.465 113.333 334.962 112.768 C 336.316 111.226,336.106 106.413,334.512 102.417 C 333.882 100.838,333.263 98.149,332.757 94.794 C 332.221 91.245,332.091 90.680,331.500 89.333 C 330.906 87.981,330.787 87.460,330.164 83.481 C 329.531 79.447,329.259 78.253,328.561 76.453 C 327.918 74.796,327.681 73.758,327.173 70.366 C 326.767 67.654,326.245 65.558,325.596 64.036 C 325.270 63.274,325.014 62.074,324.653 59.627 C 324.097 55.860,323.773 54.448,322.826 51.657 C 322.318 50.160,322.096 49.120,321.830 46.990 C 321.431 43.803,321.050 42.134,320.359 40.552 C 319.649 38.928,319.380 37.864,319.082 35.500 C 318.298 29.277,318.163 28.884,316.528 28.110 L 315.417 27.583 307.869 27.537 L 300.321 27.490 299.411 28.401 M69.362 28.882 C 69.795 29.212,70.106 29.595,70.141 29.841 C 70.173 30.066,70.447 30.887,70.750 31.667 C 71.500 33.593,71.964 36.389,72.250 40.702 C 72.517 44.714,72.869 46.755,73.640 48.750 C 74.259 50.351,74.768 53.253,75.001 56.510 C 75.400 62.097,75.737 63.861,76.651 65.144 C 77.123 65.807,77.417 68.141,78.166 77.167 C 78.372 79.650,78.608 80.580,79.321 81.703 C 79.850 82.538,80.128 84.155,80.576 89.000 C 80.890 92.400,81.653 94.431,82.569 94.300 C 83.028 94.234,83.928 92.712,84.160 91.608 C 84.259 91.136,84.717 89.608,85.178 88.212 C 86.395 84.521,86.975 81.362,87.252 76.917 C 87.493 73.047,87.466 73.188,88.889 68.490 C 89.522 66.401,89.874 63.917,90.170 59.444 C 90.379 56.283,90.670 54.789,91.345 53.417 C 91.933 52.223,92.207 50.795,92.575 47.000 C 93.261 39.930,93.578 37.792,94.046 37.083 C 94.881 35.821,95.060 34.977,95.424 30.595 C 95.520 29.444,95.595 29.213,96.004 28.803 L 96.474 28.333 102.090 28.333 L 107.705 28.333 108.519 28.776 C 108.967 29.020,109.332 29.301,109.330 29.401 C 109.328 29.502,109.182 30.460,109.005 31.532 C 108.828 32.604,108.600 34.441,108.498 35.615 C 108.293 37.971,107.922 39.770,107.555 40.190 C 106.855 40.988,106.133 43.982,105.751 47.667 C 105.400 51.051,105.118 52.368,104.596 53.052 C 103.772 54.132,103.371 55.943,102.917 60.637 C 102.642 63.476,102.302 65.025,101.820 65.638 C 101.170 66.465,100.493 69.364,100.161 72.750 C 99.937 75.036,99.603 76.420,98.913 77.917 C 98.130 79.617,97.713 81.416,97.425 84.328 C 97.046 88.160,96.722 89.750,96.083 90.917 C 95.270 92.400,95.026 93.425,94.674 96.852 C 94.337 100.126,94.027 101.633,93.467 102.732 C 92.640 104.353,92.091 106.529,91.908 108.917 C 91.821 110.049,91.689 110.611,91.370 111.208 L 90.947 112.000 83.967 112.000 C 76.279 112.000,74.479 111.809,73.918 110.935 C 73.685 110.573,73.271 107.935,73.076 105.583 C 72.931 103.824,72.321 101.517,71.610 100.032 C 70.960 98.675,70.643 97.086,70.253 93.233 C 69.989 90.621,69.724 89.613,68.854 87.917 C 68.274 86.785,67.975 85.247,67.593 81.417 C 67.309 78.568,66.880 76.694,66.180 75.250 C 65.417 73.674,65.179 72.634,64.826 69.333 C 64.412 65.471,64.282 64.879,63.509 63.333 C 62.660 61.635,62.454 60.591,61.829 54.840 C 61.631 53.023,61.034 50.815,60.481 49.859 C 59.906 48.863,59.502 46.980,59.166 43.733 C 58.818 40.355,58.450 38.819,57.744 37.785 C 57.214 37.010,56.760 34.801,56.470 31.583 L 56.263 29.294 56.801 28.814 L 57.339 28.333 62.990 28.333 L 68.641 28.333 69.362 28.882 M136.179 28.821 L 136.667 29.308 136.667 69.962 L 136.667 110.617 136.166 111.308 L 135.665 112.000 130.047 112.000 L 124.429 112.000 123.715 111.299 L 123.000 110.597 123.000 69.966 L 123.000 29.335 123.692 28.834 L 124.383 28.333 130.038 28.333 L 135.692 28.333 136.179 28.821 M169.699 28.781 L 170.167 29.229 170.167 44.461 C 170.167 60.919,170.228 62.446,170.939 63.548 C 171.556 64.505,172.057 64.668,172.646 64.103 C 173.160 63.611,173.198 63.544,174.066 61.617 C 174.443 60.782,174.915 60.063,175.386 59.605 C 176.033 58.975,176.203 58.641,176.828 56.765 C 177.436 54.940,177.636 54.539,178.234 53.941 C 178.832 53.343,179.030 52.945,179.624 51.152 C 180.228 49.329,180.411 48.965,181.051 48.322 C 181.701 47.668,181.858 47.350,182.419 45.543 C 182.988 43.715,183.135 43.420,183.828 42.709 C 184.515 42.006,184.674 41.690,185.237 39.917 C 185.753 38.289,185.993 37.784,186.524 37.207 C 187.317 36.344,187.422 36.094,188.014 33.674 C 188.460 31.850,188.515 31.733,189.242 31.065 C 189.661 30.681,190.114 30.101,190.250 29.777 C 190.385 29.452,190.748 28.995,191.055 28.760 L 191.615 28.333 197.227 28.333 L 202.838 28.333 203.418 28.875 L 203.998 29.417 203.678 30.500 C 203.502 31.096,203.311 31.802,203.252 32.069 C 203.194 32.336,202.821 32.861,202.422 33.236 C 201.532 34.073,201.273 34.580,200.763 36.483 C 200.293 38.240,200.255 38.316,199.514 38.934 C 198.902 39.445,198.207 40.815,197.745 42.420 C 197.514 43.222,197.299 43.563,196.641 44.167 C 195.893 44.854,195.770 45.081,195.172 46.881 C 194.609 48.573,194.420 48.942,193.801 49.547 C 193.170 50.165,193.002 50.501,192.417 52.317 C 191.831 54.132,191.658 54.478,191.000 55.153 C 190.341 55.829,190.169 56.175,189.583 57.990 C 188.991 59.828,188.837 60.132,188.203 60.728 C 187.528 61.361,187.432 61.577,186.411 64.747 C 185.211 68.478,185.201 68.534,185.660 68.993 C 186.141 69.475,186.639 70.530,186.939 71.709 C 187.268 72.995,187.665 73.791,188.250 74.333 C 188.843 74.883,189.411 76.024,189.750 77.345 C 190.050 78.516,190.593 79.564,191.167 80.084 C 191.677 80.544,192.257 81.739,192.585 83.005 C 192.924 84.316,193.190 84.840,193.925 85.654 C 194.562 86.359,195.222 87.735,195.407 88.742 C 195.570 89.629,196.034 90.502,196.741 91.251 C 197.319 91.865,198.019 93.367,198.253 94.500 C 198.421 95.310,198.885 96.173,199.417 96.667 C 200.007 97.214,200.576 98.353,200.917 99.669 C 201.256 100.975,201.662 101.788,202.250 102.333 C 202.888 102.925,203.423 104.060,203.824 105.670 C 204.188 107.130,204.781 108.328,205.333 108.714 C 206.120 109.265,206.338 110.789,205.743 111.576 C 205.364 112.077,195.341 112.175,193.089 111.699 C 191.341 111.330,191.115 111.122,190.744 109.531 C 190.430 108.184,189.789 106.934,189.183 106.486 C 188.629 106.076,188.290 105.371,187.908 103.833 C 187.585 102.535,186.903 101.220,186.370 100.871 C 185.814 100.506,185.529 99.860,185.236 98.294 C 184.904 96.520,184.359 95.331,183.621 94.767 C 182.982 94.280,182.847 94.000,182.410 92.250 C 182.017 90.679,181.599 89.878,180.757 89.083 C 180.106 88.468,180.023 88.289,179.675 86.750 C 179.196 84.632,178.792 83.687,178.065 82.982 C 177.590 82.522,177.366 82.043,176.828 80.335 C 176.196 78.333,175.852 77.720,175.032 77.138 C 174.860 77.016,174.292 76.080,173.770 75.056 C 172.636 72.837,172.192 72.430,171.552 73.027 C 170.181 74.307,170.168 74.507,170.167 93.962 L 170.167 110.674 169.728 111.337 L 169.289 112.000 163.623 112.000 L 157.956 112.000 157.228 111.272 L 156.500 110.544 156.500 69.935 L 156.500 29.326 157.283 28.830 L 158.065 28.333 163.649 28.333 L 169.232 28.333 169.699 28.781 M229.417 28.803 L 230.750 29.254 231.118 30.335 C 231.320 30.930,231.649 32.043,231.849 32.809 C 232.142 33.932,232.367 34.394,233.006 35.191 C 233.884 36.284,234.356 37.369,234.659 38.991 C 234.901 40.287,235.289 41.082,236.005 41.750 C 236.661 42.362,236.870 42.835,237.317 44.718 C 237.734 46.477,237.839 46.693,238.766 47.694 C 239.162 48.121,239.533 48.684,239.591 48.944 C 240.176 51.590,241.082 53.854,241.685 54.177 C 241.951 54.319,242.314 55.306,243.318 58.619 C 243.579 59.483,243.865 60.018,244.329 60.515 C 244.992 61.227,245.410 62.197,245.919 64.209 C 246.090 64.882,246.414 65.608,246.727 66.015 C 247.015 66.389,247.413 66.917,247.613 67.187 C 247.813 67.460,248.139 68.397,248.341 69.284 C 248.816 71.368,249.015 71.818,249.909 72.825 C 250.362 73.335,250.722 73.939,250.831 74.373 C 251.608 77.475,251.987 78.322,253.156 79.584 C 253.781 80.258,254.588 81.358,254.949 82.029 C 255.909 83.815,256.483 83.645,256.946 81.438 C 257.515 78.720,257.133 75.668,256.076 74.494 C 255.891 74.288,255.833 73.047,255.783 68.244 C 255.732 63.399,255.667 62.042,255.447 61.167 C 254.969 59.273,255.031 29.676,255.514 28.895 L 255.861 28.333 261.501 28.333 L 267.141 28.333 267.654 28.846 L 268.167 29.359 268.167 69.897 L 268.167 110.435 267.670 111.217 L 267.174 112.000 263.078 112.000 C 256.811 112.000,255.799 111.648,255.202 109.257 C 254.700 107.243,254.218 106.101,253.592 105.437 C 253.282 105.108,252.951 104.594,252.857 104.294 C 252.762 103.995,252.454 102.993,252.171 102.068 C 251.757 100.714,251.512 100.216,250.916 99.518 C 250.238 98.722,249.333 96.574,249.333 95.755 C 249.333 95.269,248.669 94.049,248.020 93.343 C 247.344 92.608,246.829 91.384,246.584 89.930 C 246.384 88.738,245.831 87.533,245.253 87.025 C 244.532 86.392,244.075 85.479,243.936 84.395 C 243.718 82.684,243.345 81.800,242.487 80.956 C 241.947 80.424,241.614 79.925,241.486 79.455 C 240.633 76.319,240.298 75.454,239.676 74.778 C 239.168 74.225,238.928 73.726,238.503 72.333 C 237.777 69.953,237.517 69.375,236.808 68.555 C 236.214 67.868,235.859 66.994,235.227 64.668 C 234.971 63.725,234.789 63.438,233.796 62.418 C 232.946 61.546,232.568 61.004,232.303 60.280 C 231.608 58.386,230.931 57.734,230.325 58.375 C 228.959 59.821,229.021 65.941,230.421 67.840 L 230.833 68.398 230.835 76.741 C 230.837 84.057,230.878 85.410,231.169 87.740 C 231.667 91.737,231.669 110.195,231.171 111.292 L 230.850 112.000 225.191 112.000 L 219.531 112.000 219.016 111.221 L 218.500 110.443 218.500 69.938 L 218.500 29.433 219.033 28.883 L 219.565 28.333 223.824 28.342 C 228.002 28.351,228.109 28.360,229.417 28.803 M315.666 28.800 C 317.197 29.571,318.103 32.140,318.409 36.583 C 318.609 39.483,319.130 41.566,319.910 42.590 C 320.474 43.329,320.940 45.355,321.154 47.991 C 321.454 51.705,322.016 54.267,322.747 55.250 C 322.951 55.525,323.237 56.237,323.381 56.833 C 323.628 57.852,323.729 58.585,324.168 62.500 C 324.381 64.399,324.874 66.252,325.497 67.500 C 326.128 68.762,326.459 70.179,326.762 72.917 C 327.142 76.352,327.823 79.177,328.432 79.850 C 328.924 80.393,329.366 82.771,329.747 86.917 C 329.901 88.597,330.294 90.082,330.937 91.417 C 331.594 92.779,332.166 95.498,332.576 99.201 C 332.890 102.040,333.123 102.937,333.841 104.069 C 334.954 105.823,335.510 110.019,334.794 111.250 L 334.406 111.917 328.718 111.961 L 323.031 112.004 322.279 111.252 C 321.865 110.839,321.479 110.282,321.420 110.016 C 321.362 109.749,321.060 109.110,320.751 108.596 C 319.950 107.267,319.336 103.639,319.334 100.233 C 319.332 97.419,318.409 97.178,307.616 97.171 C 296.650 97.164,296.742 97.100,296.092 105.250 C 295.611 111.297,295.668 111.148,293.621 111.637 C 291.331 112.185,283.132 112.142,281.302 111.572 C 280.474 111.314,280.616 109.404,281.605 107.500 C 282.378 106.011,282.778 104.235,283.070 101.000 C 283.337 98.027,283.632 96.752,284.266 95.821 C 284.947 94.821,285.296 93.526,285.588 90.915 C 285.941 87.764,286.593 84.268,286.920 83.768 C 287.698 82.581,288.182 80.617,288.586 77.013 C 289.078 72.615,289.314 71.440,289.881 70.581 C 290.706 69.333,291.177 67.371,291.486 63.907 C 291.694 61.573,292.109 59.550,292.492 59.006 C 293.376 57.747,293.628 56.765,294.160 52.500 C 294.687 48.275,294.950 47.060,295.587 45.921 C 296.350 44.558,296.594 43.513,296.919 40.221 C 297.238 37.003,297.681 35.011,298.245 34.268 C 298.778 33.565,299.294 31.964,299.436 30.569 C 299.537 29.571,299.625 29.344,300.093 28.875 L 300.633 28.333 307.692 28.336 L 314.750 28.339 315.666 28.800 M307.808 47.621 C 305.685 49.780,304.810 52.954,304.257 60.500 C 303.996 64.055,303.704 65.704,303.182 66.572 C 302.488 67.725,301.976 70.672,301.499 76.250 C 301.125 80.630,300.822 82.537,300.415 83.076 C 299.393 84.431,299.294 85.368,300.020 86.820 C 301.201 89.185,301.872 89.371,308.970 89.304 L 314.662 89.250 315.245 88.666 C 315.709 88.202,315.899 87.804,316.174 86.717 L 316.519 85.352 316.171 82.634 C 315.812 79.827,315.529 78.658,314.973 77.684 C 314.473 76.811,314.051 74.373,313.843 71.167 C 313.635 67.952,313.036 64.197,312.398 62.105 C 311.388 58.796,311.198 57.783,311.012 54.742 C 310.787 51.064,310.444 48.850,309.928 47.750 C 309.181 46.155,309.247 46.159,307.808 47.621 M309.831 52.110 C 310.016 53.068,310.241 54.729,310.332 55.801 C 310.422 56.873,310.607 58.462,310.743 59.333 C 310.878 60.204,311.105 61.754,311.248 62.777 C 311.509 64.647,311.658 65.238,312.336 67.083 C 312.600 67.801,312.816 69.164,313.102 71.917 C 313.587 76.584,313.797 77.841,314.754 81.793 C 315.622 85.380,315.622 85.381,315.104 86.553 C 314.544 87.820,314.331 87.865,308.524 87.955 C 302.796 88.043,302.416 87.937,301.165 85.913 L 300.808 85.337 301.142 84.444 C 301.595 83.233,301.783 82.046,302.005 79.000 C 302.204 76.259,302.561 74.118,303.339 71.000 C 304.205 67.529,304.651 64.958,304.915 61.917 C 305.231 58.278,305.399 57.171,305.817 55.990 C 306.541 53.942,307.554 51.674,308.291 50.452 L 309.074 49.154 309.284 49.761 C 309.400 50.095,309.646 51.152,309.831 52.110 M230.907 61.112 L 230.772 62.083 230.653 61.083 C 230.527 60.029,230.594 59.694,230.873 59.973 C 230.980 60.080,230.992 60.497,230.907 61.112 " stroke="none" fill="#84b4fc" fill-rule="evenodd"></path><path id="path2" d="M56.485 25.648 C 53.218 26.926,52.234 29.407,54.135 31.572 C 54.647 32.156,54.875 33.471,55.089 37.083 C 55.332 41.183,55.855 43.358,56.794 44.183 C 57.517 44.818,57.824 45.974,57.830 48.083 C 57.841 52.285,58.510 55.329,59.744 56.796 C 60.224 57.366,60.655 59.759,60.667 61.917 C 60.687 65.697,61.793 69.667,62.827 69.667 C 63.052 69.667,63.316 71.411,63.420 73.583 C 63.655 78.516,64.137 80.618,65.330 81.917 C 65.834 82.465,66.049 83.673,66.251 87.083 C 66.512 91.480,66.953 93.423,67.924 94.451 C 68.767 95.344,68.999 96.137,69.001 98.133 C 69.006 102.508,69.951 106.656,71.087 107.292 C 71.260 107.389,71.435 108.154,71.670 109.840 C 72.172 113.452,72.703 114.563,74.142 115.020 C 74.815 115.234,89.919 115.448,90.931 115.258 C 92.206 115.019,93.217 113.358,93.600 110.875 C 93.660 110.485,93.776 110.167,93.858 110.167 C 94.836 110.167,95.727 106.726,95.994 101.916 C 96.188 98.410,96.298 97.937,97.067 97.303 C 97.969 96.560,98.527 94.247,98.746 90.333 C 98.951 86.680,99.182 85.328,99.699 84.739 C 100.835 83.445,101.274 81.620,101.575 76.942 C 101.817 73.189,101.926 72.666,102.544 72.260 C 103.588 71.576,104.059 69.818,104.331 65.583 C 104.635 60.869,104.762 60.164,105.406 59.632 C 106.523 58.710,106.863 57.235,107.164 51.992 C 107.378 48.272,107.514 47.607,108.179 47.047 C 109.250 46.146,109.614 44.851,109.852 41.083 C 110.173 36.008,110.362 34.945,111.047 34.343 C 112.842 32.767,113.047 28.498,111.414 26.719 C 110.292 25.497,109.966 25.447,102.675 25.374 L 96.433 25.311 95.758 25.968 C 93.518 28.149,92.824 28.860,92.604 29.201 C 92.127 29.941,91.646 34.015,91.335 39.958 C 91.122 44.037,91.080 44.282,90.497 44.917 C 89.224 46.302,88.914 48.083,88.581 55.917 C 88.417 59.799,88.218 61.164,87.757 61.591 C 86.548 62.712,86.136 64.721,85.837 70.945 C 85.619 75.462,85.415 77.069,84.984 77.652 C 84.805 77.895,84.400 78.780,84.084 79.617 C 83.506 81.155,83.383 81.887,83.003 86.095 C 82.649 90.004,82.391 89.913,82.156 85.797 C 81.625 76.475,81.303 74.293,80.315 73.335 C 79.492 72.536,79.385 72.013,79.261 68.167 C 79.044 61.455,78.538 58.361,77.448 57.076 C 76.677 56.168,76.679 56.182,76.418 50.736 C 76.114 44.384,75.518 41.169,74.427 40.000 C 73.916 39.453,73.668 37.963,73.662 35.403 C 73.650 30.771,73.249 28.107,72.453 27.374 C 72.082 27.032,71.804 26.874,69.824 25.875 L 68.750 25.334 63.000 25.341 C 57.873 25.348,57.167 25.381,56.485 25.648 M123.250 25.840 C 120.968 26.994,120.690 27.166,120.378 27.614 C 119.645 28.667,119.667 27.351,119.669 70.067 C 119.671 114.371,119.617 111.783,120.569 113.407 C 121.554 115.088,123.036 115.368,130.583 115.301 L 136.250 115.250 137.000 114.830 C 137.638 114.474,137.887 114.162,138.667 112.747 L 139.583 111.083 139.626 70.202 C 139.663 34.797,139.636 29.258,139.428 28.854 C 139.123 28.265,136.963 26.074,136.271 25.652 C 135.785 25.356,135.363 25.335,130.000 25.334 L 124.250 25.334 123.250 25.840 M157.274 25.593 C 156.920 25.722,156.375 25.986,156.062 26.180 C 155.750 26.373,155.178 26.698,154.793 26.902 C 154.289 27.168,153.973 27.503,153.671 28.090 L 153.250 28.908 153.250 69.996 C 153.250 116.285,153.139 112.357,154.489 113.850 C 155.659 115.145,156.197 115.236,163.043 115.300 C 169.635 115.362,170.349 115.281,171.197 114.381 C 171.618 113.934,171.764 113.685,172.786 111.667 L 173.250 110.750 173.294 96.461 L 173.339 82.172 173.925 81.586 C 174.847 80.664,174.980 80.810,175.441 83.248 C 175.742 84.838,176.375 86.085,177.127 86.566 C 177.707 86.938,178.027 87.743,178.249 89.390 C 178.444 90.833,179.603 92.667,180.319 92.667 C 180.538 92.667,180.809 93.477,180.996 94.688 C 181.282 96.538,181.847 97.569,182.869 98.100 C 183.377 98.365,183.542 98.848,183.822 100.894 C 184.055 102.594,184.497 103.590,185.185 103.962 C 186.087 104.449,186.275 104.728,186.396 105.759 C 186.653 107.946,187.218 109.165,188.239 109.735 C 188.899 110.103,188.946 110.190,189.313 111.722 C 190.077 114.911,191.341 115.333,200.126 115.333 C 206.544 115.333,207.021 115.257,208.359 114.015 L 209.182 113.250 208.770 112.651 C 208.444 112.179,208.303 111.633,208.099 110.068 C 207.680 106.848,207.019 105.345,205.898 105.064 C 205.634 104.997,205.500 104.844,205.500 104.607 C 205.499 102.664,204.360 100.016,203.329 99.562 C 202.828 99.340,202.667 99.174,202.667 98.877 C 202.667 97.043,201.603 94.485,200.659 94.048 C 200.073 93.777,199.997 93.667,199.829 92.833 C 199.206 89.742,198.742 88.779,197.657 88.329 C 197.327 88.193,197.155 87.977,197.083 87.609 C 196.381 84.029,195.728 82.667,194.714 82.667 C 194.445 82.667,194.353 82.522,194.265 81.958 C 193.770 78.815,193.193 77.545,192.075 77.141 C 191.674 76.996,191.500 76.830,191.500 76.592 C 191.499 74.714,190.342 71.978,189.406 71.640 C 189.052 71.512,188.795 71.295,188.754 71.089 C 188.716 70.903,188.563 70.165,188.413 69.449 C 187.891 66.960,188.280 64.896,189.531 63.522 C 190.484 62.474,190.764 61.981,190.916 61.078 C 191.166 59.597,191.545 58.772,192.343 57.975 C 193.102 57.216,193.833 55.767,193.833 55.023 C 193.833 54.290,194.419 53.090,195.118 52.391 C 195.915 51.594,196.407 50.651,196.584 49.583 C 196.747 48.597,197.172 47.333,197.341 47.333 C 197.784 47.333,199.148 45.310,199.329 44.382 C 199.617 42.915,199.816 42.533,200.554 42.038 C 201.426 41.452,201.939 40.441,202.243 38.707 C 202.530 37.074,202.580 36.971,203.330 36.466 C 204.384 35.755,204.642 35.192,205.175 32.443 C 205.281 31.897,205.496 31.360,205.666 31.219 C 207.528 29.674,207.622 29.370,206.815 27.495 C 205.956 25.499,205.222 25.333,197.210 25.333 L 191.449 25.333 190.849 25.966 C 190.520 26.315,189.635 26.999,188.883 27.488 C 187.282 28.529,186.925 29.112,186.579 31.249 C 186.316 32.870,186.089 33.406,185.563 33.646 C 184.984 33.909,184.210 35.228,183.997 36.313 C 183.602 38.331,183.307 39.069,182.592 39.837 C 181.560 40.946,181.350 41.332,181.083 42.614 C 180.777 44.082,180.419 44.943,180.026 45.153 C 179.391 45.493,178.506 47.051,178.249 48.283 C 177.900 49.960,177.782 50.210,176.940 51.052 C 176.009 51.983,175.728 52.522,175.426 53.956 C 174.956 56.189,174.803 56.337,173.900 55.433 L 173.333 54.867 173.333 42.133 L 173.333 29.399 172.854 28.658 C 172.179 27.613,170.815 26.271,169.833 25.684 C 169.083 25.235,158.459 25.158,157.274 25.593 M218.608 25.935 C 217.525 26.729,216.215 28.108,215.821 28.868 C 215.348 29.780,215.332 110.146,215.804 111.250 C 216.799 113.577,217.734 114.741,218.879 115.082 C 220.357 115.520,230.494 115.447,231.437 114.990 C 233.263 114.106,233.232 114.581,233.097 89.667 C 232.966 65.483,233.073 62.796,233.972 67.796 C 234.409 70.226,234.787 71.137,235.752 72.081 C 236.583 72.893,236.619 72.979,237.005 75.134 C 237.358 77.102,237.667 77.731,238.590 78.358 C 239.299 78.839,239.648 79.456,239.659 80.250 C 239.677 81.536,240.378 83.220,241.277 84.133 C 242.003 84.871,242.167 85.150,242.256 85.801 C 242.613 88.429,243.381 90.005,244.431 90.268 C 244.877 90.380,244.905 90.462,245.171 92.417 C 245.498 94.825,246.039 95.877,247.167 96.303 C 247.543 96.445,247.613 96.628,247.886 98.188 C 248.386 101.043,248.556 101.488,249.577 102.616 C 250.545 103.685,250.663 103.988,251.156 106.667 C 251.391 107.942,251.946 108.874,252.659 109.190 C 253.199 109.429,253.543 110.127,253.754 111.411 C 253.986 112.831,255.217 114.244,256.750 114.851 C 257.724 115.237,257.879 115.247,262.750 115.249 L 267.750 115.250 268.513 114.801 C 269.277 114.352,269.377 114.210,270.697 111.685 L 271.167 110.786 271.166 70.018 C 271.165 30.623,271.155 29.233,270.857 28.750 C 270.428 28.056,268.897 26.499,268.017 25.863 L 267.283 25.333 261.532 25.333 L 255.781 25.333 254.959 26.208 C 253.445 27.820,253.583 25.307,253.583 51.250 C 253.583 63.900,253.522 74.419,253.447 74.625 C 253.152 75.437,252.790 74.748,252.592 73.000 C 252.372 71.061,251.721 69.701,250.838 69.335 C 250.281 69.104,250.161 68.791,249.822 66.667 C 249.469 64.461,249.059 63.656,248.078 63.240 C 247.588 63.032,247.555 62.948,247.045 60.583 C 246.490 58.009,245.933 56.788,245.116 56.351 C 244.671 56.113,244.417 55.373,244.093 53.380 C 243.822 51.709,243.418 50.885,242.591 50.321 C 241.756 49.751,241.651 49.526,241.388 47.758 C 241.109 45.874,240.549 44.669,239.757 44.242 C 239.091 43.884,238.982 43.633,238.598 41.583 C 238.245 39.694,237.767 38.701,236.961 38.182 C 236.493 37.880,236.312 37.632,236.233 37.182 C 235.660 33.936,235.324 33.039,234.336 32.118 C 233.575 31.409,233.512 31.282,233.160 29.759 C 232.701 27.771,232.322 27.166,231.329 26.833 C 230.919 26.695,230.313 26.414,229.982 26.209 C 228.669 25.393,228.233 25.333,223.687 25.337 L 219.417 25.342 218.608 25.935 M299.836 25.875 C 299.443 26.173,298.960 26.529,298.762 26.667 C 296.342 28.350,295.933 29.520,295.583 35.750 C 295.430 38.477,295.255 39.206,294.643 39.658 C 293.625 40.410,293.089 42.629,292.829 47.160 C 292.613 50.944,292.448 51.743,291.763 52.344 C 290.636 53.334,290.293 54.863,290.011 60.167 C 289.819 63.771,289.729 64.150,288.875 64.979 C 287.856 65.968,287.431 67.694,287.249 71.583 C 287.094 74.897,286.884 75.903,286.164 76.774 C 285.192 77.950,284.747 79.756,284.496 83.543 C 284.180 88.320,284.099 88.757,283.414 89.358 C 282.297 90.339,282.015 91.547,281.589 97.178 C 281.299 101.014,281.293 101.043,280.472 101.983 C 278.361 104.399,278.186 113.428,280.220 114.908 C 280.767 115.306,290.344 115.505,293.549 115.185 C 296.690 114.872,297.062 114.253,297.663 108.338 C 297.823 106.767,297.888 106.541,298.318 106.088 C 299.235 105.120,299.714 103.522,299.925 100.726 C 300.079 98.683,299.463 98.833,307.716 98.837 C 316.076 98.840,316.013 98.831,316.580 100.226 C 316.797 100.759,317.086 101.320,317.222 101.473 C 317.549 101.840,317.796 103.628,317.997 107.099 C 318.455 114.987,318.728 115.210,328.083 115.300 C 335.146 115.369,335.607 115.304,337.004 114.048 L 337.833 113.302 337.833 111.894 C 337.833 110.634,337.792 110.443,337.438 110.090 C 336.955 109.606,336.720 108.380,336.575 105.583 C 336.328 100.813,335.848 98.659,334.842 97.794 C 334.071 97.131,334.067 97.113,333.749 92.791 C 333.392 87.929,332.976 86.192,331.863 84.925 C 331.289 84.271,331.095 83.181,330.839 79.167 C 330.606 75.523,330.263 74.269,329.244 73.333 C 328.497 72.647,328.362 72.071,328.171 68.736 C 327.897 63.978,327.482 62.123,326.408 60.868 C 325.768 60.121,325.491 58.633,325.252 54.667 C 325.042 51.180,324.701 49.933,323.628 48.730 C 322.882 47.893,322.872 47.846,322.585 43.876 C 322.248 39.215,321.889 37.835,320.649 36.422 C 320.133 35.834,320.133 35.834,319.880 32.542 C 319.530 28.002,319.191 27.085,317.735 26.737 C 317.468 26.674,317.137 26.525,316.999 26.406 C 316.862 26.287,316.337 25.998,315.833 25.763 L 314.917 25.337 307.733 25.335 L 300.550 25.333 299.836 25.875 M69.619 27.355 C 71.987 28.227,72.398 29.231,72.918 35.414 C 73.260 39.484,73.889 43.546,74.338 44.594 C 74.975 46.079,75.333 48.027,75.669 51.833 C 76.008 55.674,76.432 58.356,76.992 60.205 C 77.980 63.460,78.334 65.343,78.512 68.290 C 78.667 70.847,78.968 72.931,79.659 76.250 C 79.736 76.617,80.062 77.929,80.385 79.167 C 81.062 81.764,81.093 81.966,81.414 85.750 C 81.805 90.352,82.329 92.418,82.802 91.219 C 83.287 89.990,83.845 87.511,84.165 85.167 C 84.415 83.331,84.633 82.341,84.920 81.744 C 85.651 80.222,85.810 79.544,86.083 76.800 C 86.922 68.356,87.144 66.934,87.923 65.015 C 88.458 63.699,88.958 60.881,89.168 58.000 C 89.459 53.995,90.150 49.758,90.799 48.000 C 91.438 46.271,91.855 43.674,92.162 39.500 C 92.292 37.740,92.511 36.523,93.164 33.917 C 93.624 32.083,94.000 30.412,94.000 30.203 C 94.000 29.253,95.018 27.768,96.033 27.236 C 96.684 26.895,107.512 26.896,108.792 27.237 C 110.029 27.566,110.693 28.000,111.118 28.758 C 111.549 29.526,111.545 29.549,110.562 32.193 C 109.940 33.868,109.794 34.521,109.502 36.943 C 109.013 41.003,108.562 43.220,107.995 44.344 C 107.297 45.727,106.857 47.469,106.651 49.667 C 106.379 52.571,105.502 56.585,104.995 57.250 C 104.653 57.699,104.162 59.870,103.916 62.022 C 103.475 65.890,102.945 68.465,102.360 69.593 C 101.752 70.765,101.234 72.805,100.987 75.000 C 100.613 78.332,100.222 80.134,99.603 81.388 C 98.983 82.642,98.588 84.480,98.164 88.083 C 97.828 90.944,97.541 92.268,96.931 93.784 C 96.160 95.700,95.741 97.503,95.333 100.667 C 94.890 104.093,94.573 105.495,93.990 106.603 C 93.696 107.162,93.345 108.297,93.098 109.496 C 92.654 111.639,92.246 112.620,91.449 113.458 L 90.935 114.000 83.759 113.997 C 73.139 113.993,72.973 113.918,72.261 108.833 C 71.881 106.114,71.548 104.752,70.998 103.662 C 70.414 102.505,70.134 101.249,69.682 97.747 C 69.355 95.217,68.671 92.147,68.253 91.340 C 67.677 90.225,67.288 88.553,66.915 85.588 C 66.384 81.364,66.091 79.991,65.417 78.581 C 64.818 77.327,64.488 75.819,64.086 72.500 C 63.793 70.086,63.180 67.419,62.603 66.044 C 61.912 64.400,61.680 63.355,61.254 59.968 C 60.763 56.059,60.429 54.485,59.896 53.569 C 59.351 52.631,58.926 50.843,58.591 48.083 C 58.230 45.104,57.613 42.300,57.001 40.862 C 56.342 39.313,56.061 38.045,55.668 34.833 C 55.483 33.321,55.213 31.495,55.068 30.776 C 54.692 28.908,55.093 27.987,56.576 27.313 C 57.681 26.811,68.234 26.845,69.619 27.355 M136.342 27.338 C 136.706 27.524,137.228 27.985,137.502 28.363 L 138.000 29.050 138.000 69.852 L 138.000 110.654 137.642 111.619 C 137.421 112.215,137.015 112.854,136.581 113.292 L 135.877 114.000 130.064 113.998 L 124.250 113.997 123.398 113.508 C 122.464 112.972,121.825 112.298,121.325 111.318 C 121.005 110.690,121.000 110.018,121.000 69.917 L 121.000 29.154 121.625 28.489 C 122.934 27.097,123.430 27.008,129.965 27.004 C 135.381 27.000,135.715 27.018,136.342 27.338 M169.614 27.177 C 170.196 27.397,170.941 28.089,171.307 28.750 C 171.557 29.203,171.591 30.751,171.667 45.283 C 171.757 62.590,171.761 62.666,172.567 60.350 C 173.065 58.922,173.326 58.597,174.392 58.083 C 175.062 57.760,175.104 57.692,175.752 55.833 C 176.449 53.833,176.881 53.009,177.568 52.369 C 177.821 52.133,178.180 51.371,178.511 50.369 C 179.180 48.343,179.504 47.696,180.235 46.921 C 180.654 46.477,180.962 45.859,181.347 44.695 C 182.020 42.656,182.235 42.225,182.948 41.480 C 183.388 41.020,183.695 40.380,184.242 38.783 C 184.940 36.743,185.425 35.741,185.909 35.340 C 186.178 35.116,186.815 33.489,187.319 31.738 C 187.745 30.257,189.513 28.086,190.839 27.414 L 191.656 27.000 197.307 27.000 C 204.142 27.000,204.523 27.080,205.340 28.680 C 205.644 29.276,205.644 29.277,205.169 30.274 C 204.908 30.822,204.566 31.717,204.409 32.261 C 204.048 33.516,203.830 33.939,203.085 34.832 C 202.421 35.626,202.181 36.131,201.564 38.030 C 201.173 39.236,200.831 39.830,200.109 40.556 C 199.793 40.873,199.224 42.063,198.636 43.629 C 198.442 44.145,197.985 44.844,197.528 45.320 C 196.855 46.022,196.664 46.392,196.117 48.057 C 195.598 49.634,195.352 50.128,194.760 50.787 C 194.182 51.430,193.912 51.961,193.418 53.421 C 192.735 55.441,192.610 55.682,191.805 56.538 C 191.394 56.973,191.087 57.622,190.625 59.029 C 190.112 60.591,189.858 61.099,189.204 61.872 C 186.929 64.564,186.728 70.578,188.848 72.593 C 189.615 73.323,190.097 74.246,190.577 75.905 C 190.827 76.773,191.197 77.630,191.462 77.958 C 192.826 79.649,192.968 79.940,193.649 82.442 C 193.755 82.834,194.152 83.486,194.561 83.942 C 195.472 84.958,195.737 85.478,196.182 87.109 C 196.617 88.706,196.666 88.800,197.581 89.831 C 198.167 90.491,198.418 90.984,198.829 92.287 C 199.424 94.172,199.800 94.966,200.203 95.184 C 200.673 95.439,201.285 96.654,201.743 98.239 C 201.994 99.106,202.363 99.963,202.628 100.291 C 203.811 101.757,204.037 102.157,204.432 103.489 C 204.950 105.235,205.329 106.033,206.084 106.969 C 207.659 108.923,207.749 112.740,206.243 113.671 C 205.739 113.982,205.399 114.000,199.897 113.997 L 194.083 113.994 192.667 113.417 C 190.948 112.716,190.383 112.138,189.766 110.446 C 189.514 109.755,189.032 108.880,188.648 108.415 C 187.809 107.400,187.654 107.094,187.098 105.360 C 186.665 104.009,186.346 103.419,185.351 102.126 C 185.055 101.741,184.733 100.972,184.515 100.126 C 183.990 98.094,183.517 97.003,182.813 96.195 C 182.467 95.797,182.074 95.160,181.941 94.778 C 181.807 94.396,181.493 93.495,181.243 92.775 C 180.948 91.928,180.555 91.199,180.127 90.704 C 179.342 89.797,179.174 89.437,178.514 87.250 C 178.143 86.019,177.823 85.333,177.291 84.625 C 176.781 83.946,176.408 83.166,176.017 81.958 C 175.224 79.513,175.049 79.192,174.355 78.902 C 173.497 78.543,173.049 78.063,172.749 77.184 C 172.606 76.762,172.384 76.229,172.257 76.000 L 172.025 75.583 171.846 76.053 C 171.722 76.376,171.665 81.794,171.661 93.469 C 171.654 116.114,172.491 114.039,163.393 113.965 L 157.575 113.917 156.687 113.347 C 156.134 112.991,155.570 112.432,155.191 111.861 L 154.583 110.946 154.541 70.115 L 154.498 29.284 154.912 28.741 C 155.403 28.097,156.260 27.540,157.221 27.240 C 158.115 26.960,168.896 26.906,169.614 27.177 M229.496 27.341 C 231.542 27.831,231.957 28.319,232.677 31.072 C 232.956 32.137,233.224 32.755,233.619 33.239 C 234.353 34.139,235.048 35.624,235.483 37.221 C 235.862 38.609,236.212 39.345,237.005 40.417 C 237.276 40.783,237.733 41.833,238.021 42.750 C 238.627 44.681,238.844 45.147,239.612 46.153 C 239.951 46.599,240.345 47.455,240.608 48.320 C 241.178 50.192,241.696 51.348,242.313 52.121 C 242.644 52.536,243.073 53.548,243.572 55.088 C 244.096 56.707,244.550 57.763,245.047 58.519 C 245.455 59.140,245.970 60.254,246.240 61.098 C 247.102 63.796,247.209 64.046,247.773 64.671 C 248.453 65.423,248.908 66.416,249.252 67.898 C 249.555 69.208,250.113 70.431,250.922 71.563 C 251.242 72.010,251.617 72.797,251.757 73.313 C 252.667 76.664,253.331 77.404,254.123 75.953 C 254.452 75.352,254.440 78.091,254.250 45.833 C 254.143 27.559,254.088 28.542,255.267 27.508 L 255.845 27.000 261.533 27.000 L 267.221 27.000 267.939 27.421 C 268.361 27.668,268.832 28.139,269.079 28.561 L 269.500 29.279 269.500 69.967 L 269.500 110.654 269.145 111.603 C 268.924 112.194,268.516 112.826,268.066 113.276 L 267.342 114.000 263.004 114.000 L 258.665 114.000 257.124 113.265 C 255.058 112.279,254.894 112.090,254.016 109.684 C 253.742 108.933,253.241 107.942,252.903 107.481 C 252.476 106.899,252.046 105.914,251.497 104.259 C 250.882 102.403,250.556 101.683,250.024 101.011 C 249.382 100.199,248.765 98.661,248.416 97.000 C 248.244 96.188,247.781 95.326,247.250 94.833 C 246.606 94.236,246.214 93.383,245.833 91.747 C 245.459 90.143,245.173 89.502,244.478 88.704 C 243.792 87.917,243.412 87.094,242.914 85.324 C 242.331 83.251,242.103 82.738,241.437 82.001 C 241.070 81.594,240.717 80.897,240.415 79.982 C 239.932 78.520,239.258 77.122,238.599 76.217 C 238.386 75.923,237.866 74.607,237.444 73.293 C 236.886 71.552,236.558 70.791,236.239 70.493 C 235.610 69.906,235.072 68.760,234.671 67.150 C 233.999 64.460,233.793 64.177,232.854 64.656 C 232.049 65.067,231.755 65.538,231.925 66.144 C 232.064 66.642,232.287 81.165,232.427 98.883 C 232.530 111.875,232.539 111.710,231.617 113.083 C 230.981 114.031,231.199 114.000,225.124 114.000 L 219.478 114.000 218.907 113.564 C 218.573 113.310,218.110 112.670,217.793 112.026 L 217.250 110.924 217.250 69.977 L 217.250 29.031 217.765 28.390 C 218.897 26.985,218.833 27.000,223.733 27.001 C 227.529 27.002,228.263 27.045,229.496 27.341 M316.123 27.413 C 317.355 27.802,317.770 28.086,318.464 29.014 C 318.573 29.160,318.854 30.810,319.088 32.681 C 319.638 37.071,319.864 38.115,320.574 39.561 C 321.296 41.032,321.565 42.182,322.002 45.677 C 322.399 48.856,322.684 50.107,323.260 51.214 C 323.801 52.252,324.219 54.073,324.742 57.667 C 325.310 61.571,325.612 62.897,326.200 64.064 C 326.791 65.237,327.051 66.417,327.497 69.938 C 327.877 72.935,328.286 74.585,329.000 75.999 C 329.495 76.981,329.968 79.143,330.338 82.120 C 330.640 84.550,331.319 87.649,331.730 88.469 C 332.404 89.816,332.641 90.820,333.078 94.184 C 333.494 97.385,333.665 98.093,334.917 101.827 C 335.251 102.822,335.609 104.361,335.750 105.411 C 335.887 106.422,336.099 108.000,336.223 108.917 C 336.549 111.338,336.120 112.923,334.943 113.651 C 334.397 113.988,334.174 114.000,328.645 114.000 C 322.210 114.000,322.342 114.022,320.944 112.692 C 319.407 111.229,319.090 110.027,318.322 102.750 C 317.821 98.002,318.615 98.340,307.952 98.336 C 298.795 98.333,299.086 98.262,298.666 100.583 C 298.551 101.225,298.286 102.206,298.079 102.764 C 297.564 104.151,297.196 106.006,296.919 108.615 C 296.372 113.753,295.906 114.000,286.774 114.000 L 281.030 114.000 280.613 113.505 C 279.244 111.878,279.308 107.698,280.747 104.744 C 281.612 102.969,281.817 102.096,282.245 98.363 C 282.519 95.972,282.961 94.009,283.584 92.417 C 284.361 90.429,284.666 89.102,285.086 85.871 C 285.554 82.268,285.776 81.305,286.412 80.107 C 286.926 79.141,287.563 76.099,287.912 72.939 C 288.218 70.171,288.502 69.005,289.256 67.433 C 289.976 65.932,290.434 63.966,290.666 61.387 C 290.884 58.962,291.463 56.444,292.255 54.476 C 292.834 53.035,293.150 51.423,293.727 46.963 C 293.912 45.529,294.141 44.606,294.587 43.491 C 295.361 41.556,295.901 39.321,296.252 36.593 C 296.702 33.104,297.822 29.490,298.823 28.297 C 299.927 26.982,299.697 27.016,307.700 27.007 L 314.816 27.000 316.123 27.413 M308.579 51.857 C 308.307 52.348,307.870 53.237,307.607 53.833 C 307.343 54.429,306.938 55.169,306.707 55.478 C 305.891 56.567,305.509 58.464,305.158 63.167 C 304.951 65.946,304.112 71.134,303.759 71.816 C 303.523 72.272,302.791 75.031,302.605 76.167 C 302.553 76.487,302.428 78.063,302.329 79.667 C 302.227 81.324,302.008 83.187,301.822 83.981 L 301.495 85.379 301.919 85.935 C 302.152 86.240,302.597 86.684,302.908 86.922 L 303.474 87.353 308.112 87.301 L 312.750 87.250 313.713 86.799 C 315.219 86.093,315.377 85.242,314.426 82.964 C 314.103 82.192,313.398 78.324,313.168 76.068 C 312.446 68.973,312.283 68.035,311.504 66.509 C 311.010 65.539,310.843 64.396,310.077 56.750 C 309.848 54.456,309.553 52.657,309.207 51.441 L 309.072 50.965 308.579 51.857 M309.660 61.536 C 309.767 63.945,309.922 66.222,310.005 66.595 C 310.221 67.574,311.161 69.985,311.592 70.667 C 312.035 71.368,312.244 73.108,312.505 78.250 C 312.677 81.657,313.012 84.400,313.328 84.990 C 313.757 85.791,312.612 86.000,307.798 86.000 L 303.391 86.000 303.012 85.596 C 302.803 85.373,302.680 85.113,302.739 85.017 C 302.799 84.921,302.918 82.985,303.006 80.713 C 303.187 75.998,303.230 75.770,304.123 74.877 C 305.210 73.790,305.459 72.256,305.826 64.417 C 306.051 59.597,306.101 59.254,306.662 58.611 C 307.316 57.863,308.386 56.064,308.762 55.083 L 309.081 54.250 309.273 55.703 C 309.379 56.502,309.553 59.127,309.660 61.536 " stroke="none" fill="#4a90f5" fill-rule="evenodd"></path><path id="path3" d="M0.000 69.917 L 0.000 139.833 200.000 139.833 L 400.000 139.833 400.000 69.917 L 400.000 0.000 200.000 0.000 L 0.000 0.000 0.000 69.917 M69.824 25.875 C 71.804 26.874,72.082 27.032,72.453 27.374 C 73.249 28.107,73.650 30.771,73.662 35.403 C 73.668 37.963,73.916 39.453,74.427 40.000 C 75.518 41.169,76.114 44.384,76.418 50.736 C 76.679 56.182,76.677 56.168,77.448 57.076 C 78.538 58.361,79.044 61.455,79.261 68.167 C 79.385 72.013,79.492 72.536,80.315 73.335 C 81.303 74.293,81.625 76.475,82.156 85.797 C 82.391 89.913,82.649 90.004,83.003 86.095 C 83.383 81.887,83.506 81.155,84.084 79.617 C 84.400 78.780,84.805 77.895,84.984 77.652 C 85.415 77.069,85.619 75.462,85.837 70.945 C 86.136 64.721,86.548 62.712,87.757 61.591 C 88.218 61.164,88.417 59.799,88.581 55.917 C 88.914 48.083,89.224 46.302,90.497 44.917 C 91.080 44.282,91.122 44.037,91.335 39.958 C 91.646 34.015,92.127 29.941,92.604 29.201 C 92.824 28.860,93.518 28.149,95.758 25.968 L 96.433 25.311 102.675 25.374 C 109.966 25.447,110.292 25.497,111.414 26.719 C 113.047 28.498,112.842 32.767,111.047 34.343 C 110.362 34.945,110.173 36.008,109.852 41.083 C 109.614 44.851,109.250 46.146,108.179 47.047 C 107.514 47.607,107.378 48.272,107.164 51.992 C 106.863 57.235,106.523 58.710,105.406 59.632 C 104.762 60.164,104.635 60.869,104.331 65.583 C 104.059 69.818,103.588 71.576,102.544 72.260 C 101.926 72.666,101.817 73.189,101.575 76.942 C 101.274 81.620,100.835 83.445,99.699 84.739 C 99.182 85.328,98.951 86.680,98.746 90.333 C 98.527 94.247,97.969 96.560,97.067 97.303 C 96.298 97.937,96.188 98.410,95.994 101.916 C 95.727 106.726,94.836 110.167,93.858 110.167 C 93.776 110.167,93.660 110.485,93.600 110.875 C 93.217 113.358,92.206 115.019,90.931 115.258 C 89.919 115.448,74.815 115.234,74.142 115.020 C 72.703 114.563,72.172 113.452,71.670 109.840 C 71.435 108.154,71.260 107.389,71.087 107.292 C 69.951 106.656,69.006 102.508,69.001 98.133 C 68.999 96.137,68.767 95.344,67.924 94.451 C 66.953 93.423,66.512 91.480,66.251 87.083 C 66.049 83.673,65.834 82.465,65.330 81.917 C 64.137 80.618,63.655 78.516,63.420 73.583 C 63.316 71.411,63.052 69.667,62.827 69.667 C 61.793 69.667,60.687 65.697,60.667 61.917 C 60.655 59.759,60.224 57.366,59.744 56.796 C 58.510 55.329,57.841 52.285,57.830 48.083 C 57.824 45.974,57.517 44.818,56.794 44.183 C 55.855 43.358,55.332 41.183,55.089 37.083 C 54.875 33.471,54.647 32.156,54.135 31.572 C 52.578 29.799,52.873 27.906,54.927 26.493 C 56.577 25.358,56.633 25.350,63.000 25.341 L 68.750 25.334 69.824 25.875 M136.271 25.652 C 136.963 26.074,139.123 28.265,139.428 28.854 C 139.636 29.258,139.663 34.797,139.626 70.202 L 139.583 111.083 138.667 112.747 C 137.887 114.162,137.638 114.474,137.000 114.830 L 136.250 115.250 130.583 115.301 C 123.036 115.368,121.554 115.088,120.569 113.407 C 119.617 111.783,119.671 114.371,119.669 70.067 C 119.667 27.351,119.645 28.667,120.378 27.614 C 120.690 27.166,120.968 26.994,123.250 25.840 L 124.250 25.334 130.000 25.334 C 135.363 25.335,135.785 25.356,136.271 25.652 M169.833 25.684 C 170.815 26.271,172.179 27.613,172.854 28.658 L 173.333 29.399 173.333 42.133 L 173.333 54.867 173.900 55.433 C 174.803 56.337,174.956 56.189,175.426 53.956 C 175.728 52.522,176.009 51.983,176.940 51.052 C 177.782 50.210,177.900 49.960,178.249 48.283 C 178.506 47.051,179.391 45.493,180.026 45.153 C 180.419 44.943,180.777 44.082,181.083 42.614 C 181.350 41.332,181.560 40.946,182.592 39.837 C 183.307 39.069,183.602 38.331,183.997 36.313 C 184.210 35.228,184.984 33.909,185.563 33.646 C 186.089 33.406,186.316 32.870,186.579 31.249 C 186.925 29.112,187.282 28.529,188.883 27.488 C 189.635 26.999,190.520 26.315,190.849 25.966 L 191.449 25.333 197.210 25.333 C 205.222 25.333,205.956 25.499,206.815 27.495 C 207.622 29.370,207.528 29.674,205.666 31.219 C 205.496 31.360,205.281 31.897,205.175 32.443 C 204.642 35.192,204.384 35.755,203.330 36.466 C 202.580 36.971,202.530 37.074,202.243 38.707 C 201.939 40.441,201.426 41.452,200.554 42.038 C 199.816 42.533,199.617 42.915,199.329 44.382 C 199.148 45.310,197.784 47.333,197.341 47.333 C 197.172 47.333,196.747 48.597,196.584 49.583 C 196.407 50.651,195.915 51.594,195.118 52.391 C 194.419 53.090,193.833 54.290,193.833 55.023 C 193.833 55.767,193.102 57.216,192.343 57.975 C 191.545 58.772,191.166 59.597,190.916 61.078 C 190.764 61.981,190.484 62.474,189.531 63.522 C 188.280 64.896,187.891 66.960,188.413 69.449 C 188.563 70.165,188.716 70.903,188.754 71.089 C 188.795 71.295,189.052 71.512,189.406 71.640 C 190.342 71.978,191.499 74.714,191.500 76.592 C 191.500 76.830,191.674 76.996,192.075 77.141 C 193.193 77.545,193.770 78.815,194.265 81.958 C 194.353 82.522,194.445 82.667,194.714 82.667 C 195.728 82.667,196.381 84.029,197.083 87.609 C 197.155 87.977,197.327 88.193,197.657 88.329 C 198.742 88.779,199.206 89.742,199.829 92.833 C 199.997 93.667,200.073 93.777,200.659 94.048 C 201.603 94.485,202.667 97.043,202.667 98.877 C 202.667 99.174,202.828 99.340,203.329 99.562 C 204.360 100.016,205.499 102.664,205.500 104.607 C 205.500 104.844,205.634 104.997,205.898 105.064 C 207.019 105.345,207.680 106.848,208.099 110.068 C 208.303 111.633,208.444 112.179,208.770 112.651 L 209.182 113.250 208.359 114.015 C 207.021 115.257,206.544 115.333,200.126 115.333 C 191.341 115.333,190.077 114.911,189.313 111.722 C 188.946 110.190,188.899 110.103,188.239 109.735 C 187.218 109.165,186.653 107.946,186.396 105.759 C 186.275 104.728,186.087 104.449,185.185 103.962 C 184.497 103.590,184.055 102.594,183.822 100.894 C 183.542 98.848,183.377 98.365,182.869 98.100 C 181.847 97.569,181.282 96.538,180.996 94.688 C 180.809 93.477,180.538 92.667,180.319 92.667 C 179.603 92.667,178.444 90.833,178.249 89.390 C 178.027 87.743,177.707 86.938,177.127 86.566 C 176.375 86.085,175.742 84.838,175.441 83.248 C 174.980 80.810,174.847 80.664,173.925 81.586 L 173.339 82.172 173.294 96.461 L 173.250 110.750 172.786 111.667 C 170.823 115.543,171.268 115.377,163.043 115.300 C 156.197 115.236,155.659 115.145,154.489 113.850 C 153.139 112.357,153.250 116.285,153.250 69.996 L 153.250 28.908 153.671 28.090 C 153.973 27.503,154.289 27.168,154.793 26.902 C 155.178 26.698,155.750 26.373,156.062 26.180 C 157.349 25.385,157.594 25.357,163.583 25.346 C 169.049 25.335,169.271 25.347,169.833 25.684 M228.669 25.584 C 229.060 25.722,229.651 26.003,229.982 26.209 C 230.313 26.414,230.919 26.695,231.329 26.833 C 232.322 27.166,232.701 27.771,233.160 29.759 C 233.512 31.282,233.575 31.409,234.336 32.118 C 235.324 33.039,235.660 33.936,236.233 37.182 C 236.312 37.632,236.493 37.880,236.961 38.182 C 237.767 38.701,238.245 39.694,238.598 41.583 C 238.982 43.633,239.091 43.884,239.757 44.242 C 240.549 44.669,241.109 45.874,241.388 47.758 C 241.651 49.526,241.756 49.751,242.591 50.321 C 243.418 50.885,243.822 51.709,244.093 53.380 C 244.417 55.373,244.671 56.113,245.116 56.351 C 245.933 56.788,246.490 58.009,247.045 60.583 C 247.555 62.948,247.588 63.032,248.078 63.240 C 249.059 63.656,249.469 64.461,249.822 66.667 C 250.161 68.791,250.281 69.104,250.838 69.335 C 251.721 69.701,252.372 71.061,252.592 73.000 C 252.790 74.748,253.152 75.437,253.447 74.625 C 253.522 74.419,253.583 63.900,253.583 51.250 C 253.583 25.307,253.445 27.820,254.959 26.208 L 255.781 25.333 261.532 25.333 L 267.283 25.333 268.017 25.863 C 268.897 26.499,270.428 28.056,270.857 28.750 C 271.155 29.233,271.165 30.623,271.166 70.018 L 271.167 110.786 270.697 111.685 C 269.377 114.210,269.277 114.352,268.513 114.801 L 267.750 115.250 262.750 115.249 C 257.879 115.247,257.724 115.237,256.750 114.851 C 255.217 114.244,253.986 112.831,253.754 111.411 C 253.543 110.127,253.199 109.429,252.659 109.190 C 251.946 108.874,251.391 107.942,251.156 106.667 C 250.663 103.988,250.545 103.685,249.577 102.616 C 248.556 101.488,248.386 101.043,247.886 98.188 C 247.613 96.628,247.543 96.445,247.167 96.303 C 246.039 95.877,245.498 94.825,245.171 92.417 C 244.905 90.462,244.877 90.380,244.431 90.268 C 243.381 90.005,242.613 88.429,242.256 85.801 C 242.167 85.150,242.003 84.871,241.277 84.133 C 240.378 83.220,239.677 81.536,239.659 80.250 C 239.648 79.456,239.299 78.839,238.590 78.358 C 237.667 77.731,237.358 77.102,237.005 75.134 C 236.619 72.979,236.583 72.893,235.752 72.081 C 234.787 71.137,234.409 70.226,233.972 67.796 C 233.073 62.796,232.966 65.483,233.097 89.667 C 233.232 114.581,233.263 114.106,231.437 114.990 C 230.494 115.447,220.357 115.520,218.879 115.082 C 217.734 114.741,216.799 113.577,215.804 111.250 C 215.332 110.146,215.348 29.780,215.821 28.868 C 216.215 28.108,217.525 26.729,218.608 25.935 L 219.417 25.342 223.687 25.337 C 227.072 25.334,228.106 25.385,228.669 25.584 M315.833 25.763 C 316.337 25.998,316.862 26.287,316.999 26.406 C 317.137 26.525,317.468 26.674,317.735 26.737 C 319.191 27.085,319.530 28.002,319.880 32.542 C 320.133 35.834,320.133 35.834,320.649 36.422 C 321.889 37.835,322.248 39.215,322.585 43.876 C 322.872 47.846,322.882 47.893,323.628 48.730 C 324.701 49.933,325.042 51.180,325.252 54.667 C 325.491 58.633,325.768 60.121,326.408 60.868 C 327.482 62.123,327.897 63.978,328.171 68.736 C 328.362 72.071,328.497 72.647,329.244 73.333 C 330.263 74.269,330.606 75.523,330.839 79.167 C 331.095 83.181,331.289 84.271,331.863 84.925 C 332.976 86.192,333.392 87.929,333.749 92.791 C 334.067 97.113,334.071 97.131,334.842 97.794 C 335.848 98.659,336.328 100.813,336.575 105.583 C 336.720 108.380,336.955 109.606,337.438 110.090 C 337.792 110.443,337.833 110.634,337.833 111.894 L 337.833 113.302 337.004 114.048 C 335.607 115.304,335.146 115.369,328.083 115.300 C 318.728 115.210,318.455 114.987,317.997 107.099 C 317.796 103.628,317.549 101.840,317.222 101.473 C 317.086 101.320,316.797 100.759,316.580 100.226 C 316.013 98.831,316.076 98.840,307.716 98.837 C 299.463 98.833,300.079 98.683,299.925 100.726 C 299.714 103.522,299.235 105.120,298.318 106.088 C 297.888 106.541,297.823 106.767,297.663 108.338 C 297.062 114.253,296.690 114.872,293.549 115.185 C 290.344 115.505,280.767 115.306,280.220 114.908 C 278.186 113.428,278.361 104.399,280.472 101.983 C 281.293 101.043,281.299 101.014,281.589 97.178 C 282.015 91.547,282.297 90.339,283.414 89.358 C 284.099 88.757,284.180 88.320,284.496 83.543 C 284.747 79.756,285.192 77.950,286.164 76.774 C 286.884 75.903,287.094 74.897,287.249 71.583 C 287.431 67.694,287.856 65.968,288.875 64.979 C 289.729 64.150,289.819 63.771,290.011 60.167 C 290.293 54.863,290.636 53.334,291.763 52.344 C 292.448 51.743,292.613 50.944,292.829 47.160 C 293.089 42.629,293.625 40.410,294.643 39.658 C 295.255 39.206,295.430 38.477,295.583 35.750 C 295.933 29.520,296.342 28.350,298.762 26.667 C 298.960 26.529,299.443 26.173,299.836 25.875 L 300.550 25.333 307.733 25.335 L 314.917 25.337 315.833 25.763 M308.762 55.083 C 308.386 56.064,307.316 57.863,306.662 58.611 C 306.101 59.254,306.051 59.597,305.826 64.417 C 305.459 72.256,305.210 73.790,304.123 74.877 C 303.230 75.770,303.187 75.998,303.006 80.713 C 302.918 82.985,302.799 84.921,302.739 85.017 C 302.680 85.113,302.803 85.373,303.012 85.596 L 303.391 86.000 307.798 86.000 C 312.612 86.000,313.757 85.791,313.328 84.990 C 313.012 84.400,312.677 81.657,312.505 78.250 C 312.244 73.108,312.035 71.368,311.592 70.667 C 311.161 69.985,310.221 67.574,310.005 66.595 C 309.922 66.222,309.767 63.945,309.660 61.536 C 309.553 59.127,309.379 56.502,309.273 55.703 L 309.081 54.250 308.762 55.083 " stroke="none" fill="#0464f4" fill-rule="evenodd"></path><path id="path4" d="M56.576 27.313 C 55.093 27.987,54.692 28.908,55.068 30.776 C 55.213 31.495,55.483 33.321,55.668 34.833 C 56.061 38.045,56.342 39.313,57.001 40.862 C 57.613 42.300,58.230 45.104,58.591 48.083 C 58.926 50.843,59.351 52.631,59.896 53.569 C 60.429 54.485,60.763 56.059,61.254 59.968 C 61.680 63.355,61.912 64.400,62.603 66.044 C 63.180 67.419,63.793 70.086,64.086 72.500 C 64.488 75.819,64.818 77.327,65.417 78.581 C 66.091 79.991,66.384 81.364,66.915 85.588 C 67.288 88.553,67.677 90.225,68.253 91.340 C 68.671 92.147,69.355 95.217,69.682 97.747 C 70.134 101.249,70.414 102.505,70.998 103.662 C 71.548 104.752,71.881 106.114,72.261 108.833 C 72.973 113.918,73.139 113.993,83.759 113.997 L 90.935 114.000 91.449 113.458 C 92.246 112.620,92.654 111.639,93.098 109.496 C 93.345 108.297,93.696 107.162,93.990 106.603 C 94.573 105.495,94.890 104.093,95.333 100.667 C 95.741 97.503,96.160 95.700,96.931 93.784 C 97.541 92.268,97.828 90.944,98.164 88.083 C 98.588 84.480,98.983 82.642,99.603 81.388 C 100.222 80.134,100.613 78.332,100.987 75.000 C 101.234 72.805,101.752 70.765,102.360 69.593 C 102.945 68.465,103.475 65.890,103.916 62.022 C 104.162 59.870,104.653 57.699,104.995 57.250 C 105.502 56.585,106.379 52.571,106.651 49.667 C 106.857 47.469,107.297 45.727,107.995 44.344 C 108.562 43.220,109.013 41.003,109.502 36.943 C 109.794 34.521,109.940 33.868,110.562 32.193 C 111.545 29.549,111.549 29.526,111.118 28.758 C 110.693 28.000,110.029 27.566,108.792 27.237 C 107.512 26.896,96.684 26.895,96.033 27.236 C 95.018 27.768,94.000 29.253,94.000 30.203 C 94.000 30.412,93.624 32.083,93.164 33.917 C 92.511 36.523,92.292 37.740,92.162 39.500 C 91.855 43.674,91.438 46.271,90.799 48.000 C 90.150 49.758,89.459 53.995,89.168 58.000 C 88.958 60.881,88.458 63.699,87.923 65.015 C 87.144 66.934,86.922 68.356,86.083 76.800 C 85.810 79.544,85.651 80.222,84.920 81.744 C 84.633 82.341,84.415 83.331,84.165 85.167 C 83.845 87.511,83.287 89.990,82.802 91.219 C 82.329 92.418,81.805 90.352,81.414 85.750 C 81.093 81.966,81.062 81.764,80.385 79.167 C 80.062 77.929,79.736 76.617,79.659 76.250 C 78.968 72.931,78.667 70.847,78.512 68.290 C 78.334 65.343,77.980 63.460,76.992 60.205 C 76.432 58.356,76.008 55.674,75.669 51.833 C 75.333 48.027,74.975 46.079,74.338 44.594 C 73.889 43.546,73.260 39.484,72.918 35.414 C 72.398 29.231,71.987 28.227,69.619 27.355 C 68.234 26.845,57.681 26.811,56.576 27.313 M123.250 27.416 C 122.648 27.662,122.001 28.089,121.625 28.489 L 121.000 29.154 121.000 69.917 C 121.000 110.018,121.005 110.690,121.325 111.318 C 121.825 112.298,122.464 112.972,123.398 113.508 L 124.250 113.997 130.064 113.998 L 135.877 114.000 136.581 113.292 C 137.015 112.854,137.421 112.215,137.642 111.619 L 138.000 110.654 138.000 69.852 L 138.000 29.050 137.502 28.363 C 136.524 27.012,136.453 26.999,129.965 27.004 C 124.288 27.008,124.243 27.011,123.250 27.416 M157.221 27.240 C 156.260 27.540,155.403 28.097,154.912 28.741 L 154.498 29.284 154.541 70.115 L 154.583 110.946 155.191 111.861 C 155.570 112.432,156.134 112.991,156.687 113.347 L 157.575 113.917 163.393 113.965 C 172.491 114.039,171.654 116.114,171.661 93.469 C 171.665 81.794,171.722 76.376,171.846 76.053 L 172.025 75.583 172.257 76.000 C 172.384 76.229,172.606 76.762,172.749 77.184 C 173.049 78.063,173.497 78.543,174.355 78.902 C 175.049 79.192,175.224 79.513,176.017 81.958 C 176.408 83.166,176.781 83.946,177.291 84.625 C 177.823 85.333,178.143 86.019,178.514 87.250 C 179.174 89.437,179.342 89.797,180.127 90.704 C 180.555 91.199,180.948 91.928,181.243 92.775 C 181.493 93.495,181.807 94.396,181.941 94.778 C 182.074 95.160,182.467 95.797,182.813 96.195 C 183.517 97.003,183.990 98.094,184.515 100.126 C 184.733 100.972,185.055 101.741,185.351 102.126 C 186.346 103.419,186.665 104.009,187.098 105.360 C 187.654 107.094,187.809 107.400,188.648 108.415 C 189.032 108.880,189.514 109.755,189.766 110.446 C 190.383 112.138,190.948 112.716,192.667 113.417 L 194.083 113.994 199.897 113.997 C 205.399 114.000,205.739 113.982,206.243 113.671 C 207.749 112.740,207.659 108.923,206.084 106.969 C 205.329 106.033,204.950 105.235,204.432 103.489 C 204.037 102.157,203.811 101.757,202.628 100.291 C 202.363 99.963,201.994 99.106,201.743 98.239 C 201.285 96.654,200.673 95.439,200.203 95.184 C 199.800 94.966,199.424 94.172,198.829 92.287 C 198.418 90.984,198.167 90.491,197.581 89.831 C 196.666 88.800,196.617 88.706,196.182 87.109 C 195.737 85.478,195.472 84.958,194.561 83.942 C 194.152 83.486,193.755 82.834,193.649 82.442 C 192.968 79.940,192.826 79.649,191.462 77.958 C 191.197 77.630,190.827 76.773,190.577 75.905 C 190.097 74.246,189.615 73.323,188.848 72.593 C 186.728 70.578,186.929 64.564,189.204 61.872 C 189.858 61.099,190.112 60.591,190.625 59.029 C 191.087 57.622,191.394 56.973,191.805 56.538 C 192.610 55.682,192.735 55.441,193.418 53.421 C 193.912 51.961,194.182 51.430,194.760 50.787 C 195.352 50.128,195.598 49.634,196.117 48.057 C 196.664 46.392,196.855 46.022,197.528 45.320 C 197.985 44.844,198.442 44.145,198.636 43.629 C 199.224 42.063,199.793 40.873,200.109 40.556 C 200.831 39.830,201.173 39.236,201.564 38.030 C 202.181 36.131,202.421 35.626,203.085 34.832 C 203.830 33.939,204.048 33.516,204.409 32.261 C 204.566 31.717,204.908 30.822,205.169 30.274 C 205.644 29.277,205.644 29.276,205.340 28.680 C 204.523 27.080,204.142 27.000,197.307 27.000 L 191.656 27.000 190.839 27.414 C 189.513 28.086,187.745 30.257,187.319 31.738 C 186.815 33.489,186.178 35.116,185.909 35.340 C 185.425 35.741,184.940 36.743,184.242 38.783 C 183.695 40.380,183.388 41.020,182.948 41.480 C 182.235 42.225,182.020 42.656,181.347 44.695 C 180.962 45.859,180.654 46.477,180.235 46.921 C 179.504 47.696,179.180 48.343,178.511 50.369 C 178.180 51.371,177.821 52.133,177.568 52.369 C 176.881 53.009,176.449 53.833,175.752 55.833 C 175.104 57.692,175.062 57.760,174.392 58.083 C 173.326 58.597,173.065 58.922,172.567 60.350 C 171.761 62.666,171.757 62.590,171.667 45.283 C 171.591 30.751,171.557 29.203,171.307 28.750 C 170.941 28.089,170.196 27.397,169.614 27.177 C 168.896 26.906,158.115 26.960,157.221 27.240 M218.832 27.375 C 218.529 27.581,218.049 28.038,217.765 28.390 L 217.250 29.031 217.250 69.977 L 217.250 110.924 217.793 112.026 C 218.110 112.670,218.573 113.310,218.907 113.564 L 219.478 114.000 225.124 114.000 C 231.199 114.000,230.981 114.031,231.617 113.083 C 232.539 111.710,232.530 111.875,232.427 98.883 C 232.287 81.165,232.064 66.642,231.925 66.144 C 231.755 65.538,232.049 65.067,232.854 64.656 C 233.793 64.177,233.999 64.460,234.671 67.150 C 235.072 68.760,235.610 69.906,236.239 70.493 C 236.558 70.791,236.886 71.552,237.444 73.293 C 237.866 74.607,238.386 75.923,238.599 76.217 C 239.258 77.122,239.932 78.520,240.415 79.982 C 240.717 80.897,241.070 81.594,241.437 82.001 C 242.103 82.738,242.331 83.251,242.914 85.324 C 243.412 87.094,243.792 87.917,244.478 88.704 C 245.173 89.502,245.459 90.143,245.833 91.747 C 246.214 93.383,246.606 94.236,247.250 94.833 C 247.781 95.326,248.244 96.188,248.416 97.000 C 248.765 98.661,249.382 100.199,250.024 101.011 C 250.556 101.683,250.882 102.403,251.497 104.259 C 252.046 105.914,252.476 106.899,252.903 107.481 C 253.241 107.942,253.742 108.933,254.016 109.684 C 254.894 112.090,255.058 112.279,257.124 113.265 L 258.665 114.000 263.004 114.000 L 267.342 114.000 268.066 113.276 C 268.516 112.826,268.924 112.194,269.145 111.603 L 269.500 110.654 269.500 69.967 L 269.500 29.279 269.079 28.561 C 268.832 28.139,268.361 27.668,267.939 27.421 L 267.221 27.000 261.533 27.000 L 255.845 27.000 255.267 27.508 C 254.088 28.542,254.143 27.559,254.250 45.833 C 254.440 78.091,254.452 75.352,254.123 75.953 C 253.331 77.404,252.667 76.664,251.757 73.313 C 251.617 72.797,251.242 72.010,250.922 71.563 C 250.113 70.431,249.555 69.208,249.252 67.898 C 248.908 66.416,248.453 65.423,247.773 64.671 C 247.209 64.046,247.102 63.796,246.240 61.098 C 245.970 60.254,245.455 59.140,245.047 58.519 C 244.550 57.763,244.096 56.707,243.572 55.088 C 243.073 53.548,242.644 52.536,242.313 52.121 C 241.696 51.348,241.178 50.192,240.608 48.320 C 240.345 47.455,239.951 46.599,239.612 46.153 C 238.844 45.147,238.627 44.681,238.021 42.750 C 237.733 41.833,237.276 40.783,237.005 40.417 C 236.212 39.345,235.862 38.609,235.483 37.221 C 235.048 35.624,234.353 34.139,233.619 33.239 C 233.224 32.755,232.956 32.137,232.677 31.072 C 231.695 27.314,231.012 27.003,223.733 27.001 C 219.495 27.000,219.368 27.010,218.832 27.375 M299.969 27.339 C 298.264 28.240,296.886 31.669,296.252 36.593 C 295.901 39.321,295.361 41.556,294.587 43.491 C 294.141 44.606,293.912 45.529,293.727 46.963 C 293.150 51.423,292.834 53.035,292.255 54.476 C 291.463 56.444,290.884 58.962,290.666 61.387 C 290.434 63.966,289.976 65.932,289.256 67.433 C 288.502 69.005,288.218 70.171,287.912 72.939 C 287.563 76.099,286.926 79.141,286.412 80.107 C 285.776 81.305,285.554 82.268,285.086 85.871 C 284.666 89.102,284.361 90.429,283.584 92.417 C 282.961 94.009,282.519 95.972,282.245 98.363 C 281.817 102.096,281.612 102.969,280.747 104.744 C 279.308 107.698,279.244 111.878,280.613 113.505 L 281.030 114.000 286.774 114.000 C 295.906 114.000,296.372 113.753,296.919 108.615 C 297.196 106.006,297.564 104.151,298.079 102.764 C 298.286 102.206,298.551 101.225,298.666 100.583 C 299.086 98.262,298.795 98.333,307.952 98.336 C 318.615 98.340,317.821 98.002,318.322 102.750 C 319.090 110.027,319.407 111.229,320.944 112.692 C 322.342 114.022,322.210 114.000,328.645 114.000 C 334.174 114.000,334.397 113.988,334.943 113.651 C 336.120 112.923,336.549 111.338,336.223 108.917 C 336.099 108.000,335.887 106.422,335.750 105.411 C 335.609 104.361,335.251 102.822,334.917 101.827 C 333.665 98.093,333.494 97.385,333.078 94.184 C 332.641 90.820,332.404 89.816,331.730 88.469 C 331.319 87.649,330.640 84.550,330.338 82.120 C 329.968 79.143,329.495 76.981,329.000 75.999 C 328.286 74.585,327.877 72.935,327.497 69.938 C 327.051 66.417,326.791 65.237,326.200 64.064 C 325.612 62.897,325.310 61.571,324.742 57.667 C 324.219 54.073,323.801 52.252,323.260 51.214 C 322.684 50.107,322.399 48.856,322.002 45.677 C 321.565 42.182,321.296 41.032,320.574 39.561 C 319.864 38.115,319.638 37.071,319.088 32.681 C 318.854 30.810,318.573 29.160,318.464 29.014 C 317.770 28.086,317.355 27.802,316.123 27.413 L 314.816 27.000 307.700 27.007 C 300.977 27.014,300.549 27.033,299.969 27.339 M69.631 27.902 C 71.651 28.935,71.905 29.711,72.761 37.500 C 73.355 42.899,73.572 44.096,74.495 47.083 C 74.718 47.804,75.040 49.876,75.337 52.500 C 75.601 54.837,75.861 57.012,75.915 57.333 C 76.325 59.792,76.918 62.551,77.186 63.248 C 77.765 64.758,77.974 65.883,78.161 68.500 C 78.465 72.767,79.399 78.407,80.182 80.701 C 80.580 81.870,80.742 82.812,81.010 85.535 C 81.497 90.473,81.939 92.500,82.530 92.500 C 82.993 92.500,84.115 88.771,84.660 85.417 C 84.856 84.211,85.270 82.522,85.592 81.607 C 86.115 80.127,86.206 79.592,86.512 76.202 C 86.698 74.133,86.878 72.396,86.911 72.343 C 86.943 72.290,87.093 71.347,87.244 70.248 C 87.396 69.137,87.774 67.450,88.097 66.446 C 88.805 64.242,89.251 61.695,89.487 58.500 C 89.720 55.343,89.995 53.720,91.000 49.540 C 91.604 47.031,91.924 45.238,92.166 43.000 C 92.767 37.457,92.829 37.065,93.336 35.603 C 93.612 34.807,93.993 33.165,94.184 31.953 C 94.374 30.741,94.561 29.587,94.598 29.388 C 94.636 29.189,95.013 28.680,95.437 28.256 L 96.208 27.485 102.396 27.534 L 108.583 27.583 109.479 28.080 C 110.454 28.619,110.919 29.168,110.789 29.625 C 110.744 29.786,110.433 30.809,110.098 31.901 C 109.693 33.224,109.408 34.611,109.244 36.067 C 108.902 39.086,108.248 42.132,107.567 43.874 C 106.878 45.638,106.585 46.967,106.247 49.862 C 105.944 52.453,105.838 52.951,105.168 54.917 C 104.266 57.564,103.847 59.362,103.576 61.750 C 103.248 64.637,102.690 67.179,102.006 68.902 C 101.379 70.480,101.073 71.748,100.743 74.130 C 100.333 77.100,99.826 79.345,99.249 80.750 C 98.593 82.345,98.486 82.860,97.831 87.532 C 97.330 91.114,97.199 91.675,96.509 93.207 C 96.069 94.183,95.602 96.288,95.162 99.281 C 94.711 102.353,94.206 104.773,93.890 105.384 C 93.418 106.298,92.992 107.729,92.753 109.207 C 92.499 110.775,92.072 111.906,91.403 112.782 L 90.983 113.333 83.902 113.333 C 72.983 113.333,73.295 113.493,72.418 107.457 C 72.139 105.538,71.875 104.339,71.573 103.624 C 70.895 102.018,70.557 100.717,70.166 98.216 C 69.643 94.870,69.038 91.775,68.766 91.049 C 68.635 90.701,68.338 89.915,68.104 89.302 C 67.809 88.527,67.524 87.059,67.167 84.469 C 66.589 80.272,66.371 79.276,65.685 77.694 C 65.203 76.583,64.871 75.021,64.082 70.153 C 63.626 67.343,63.281 66.006,62.586 64.358 C 62.244 63.546,62.004 62.342,61.555 59.192 C 60.994 55.243,60.791 54.394,59.765 51.690 C 59.613 51.290,59.302 49.827,59.073 48.440 C 58.217 43.239,57.802 41.215,57.393 40.247 C 56.655 38.500,56.509 37.855,55.909 33.685 C 55.585 31.437,55.288 29.566,55.248 29.526 C 55.088 29.366,55.788 28.425,56.400 27.976 L 57.050 27.500 62.947 27.500 L 68.844 27.500 69.631 27.902 M136.280 27.785 C 136.520 27.942,136.930 28.366,137.191 28.727 L 137.667 29.383 137.665 69.900 L 137.663 110.417 137.238 111.333 C 137.004 111.837,136.578 112.494,136.291 112.792 L 135.768 113.333 130.107 113.333 L 124.446 113.333 123.720 112.908 C 123.320 112.674,122.695 112.105,122.330 111.643 L 121.667 110.803 121.667 70.018 L 121.667 29.232 122.208 28.718 C 123.484 27.507,123.427 27.516,129.964 27.507 C 135.241 27.501,135.890 27.529,136.280 27.785 M170.364 28.333 L 171.167 29.166 171.167 44.758 C 171.167 58.256,171.201 60.504,171.426 61.489 C 171.874 63.460,172.017 63.468,172.745 61.566 C 173.296 60.125,173.497 59.801,174.336 59.000 C 175.413 57.972,175.602 57.647,176.228 55.750 C 176.669 54.412,176.843 54.088,177.900 52.628 C 178.213 52.195,178.707 51.130,178.996 50.262 C 179.285 49.394,179.704 48.436,179.926 48.133 C 180.992 46.681,181.355 46.017,181.767 44.768 C 182.314 43.109,182.686 42.351,183.166 41.917 C 183.662 41.468,183.890 40.996,184.641 38.864 C 185.033 37.751,185.546 36.677,185.965 36.092 C 186.342 35.566,186.796 34.674,186.975 34.110 C 187.154 33.545,187.427 32.672,187.583 32.170 C 187.990 30.854,189.456 28.901,190.733 27.972 L 191.383 27.500 197.233 27.503 C 203.799 27.506,203.916 27.526,204.782 28.811 C 205.152 29.361,205.153 29.374,204.851 29.975 C 204.683 30.310,204.345 31.194,204.099 31.941 C 203.781 32.903,203.417 33.589,202.849 34.298 C 202.225 35.075,201.928 35.666,201.513 36.961 C 201.000 38.557,200.793 38.948,199.803 40.191 C 199.557 40.499,199.117 41.352,198.825 42.084 C 198.089 43.930,197.928 44.215,197.099 45.149 C 196.531 45.788,196.252 46.329,195.829 47.609 C 195.287 49.247,195.003 49.784,194.155 50.776 C 193.895 51.079,193.449 52.069,193.101 53.114 C 192.654 54.456,192.321 55.140,191.818 55.748 C 190.970 56.774,190.836 57.043,190.188 59.005 C 189.814 60.138,189.469 60.829,188.985 61.414 C 187.896 62.733,187.153 64.695,186.839 67.083 L 186.664 68.417 187.384 70.432 C 187.927 71.951,188.288 72.672,188.850 73.362 C 189.413 74.052,189.749 74.725,190.222 76.107 C 190.696 77.490,191.029 78.158,191.587 78.838 C 192.056 79.410,192.486 80.196,192.766 80.994 C 193.008 81.685,193.316 82.558,193.450 82.934 C 193.584 83.311,194.023 84.020,194.426 84.512 C 194.894 85.082,195.316 85.859,195.595 86.661 C 195.835 87.352,196.140 88.229,196.274 88.611 C 196.408 88.993,196.810 89.639,197.168 90.045 C 197.826 90.793,198.265 91.724,198.857 93.628 C 199.066 94.299,199.456 95.008,199.949 95.614 C 200.532 96.330,200.885 97.029,201.419 98.524 C 201.934 99.968,202.286 100.675,202.739 101.176 C 203.424 101.934,203.735 102.584,204.399 104.640 C 204.646 105.404,205.051 106.333,205.299 106.704 C 205.547 107.075,205.882 107.574,206.043 107.814 C 207.107 109.398,207.182 111.273,206.239 112.708 L 205.829 113.333 200.167 113.333 C 192.126 113.333,191.045 112.989,190.028 110.107 C 189.813 109.501,189.444 108.722,189.207 108.377 C 188.970 108.032,188.568 107.444,188.313 107.071 C 188.058 106.697,187.663 105.822,187.436 105.126 C 186.952 103.645,186.624 102.967,186.000 102.167 C 185.327 101.302,185.068 100.724,184.583 99.000 C 184.072 97.181,183.845 96.700,182.988 95.617 C 182.638 95.174,182.192 94.318,181.990 93.700 C 181.373 91.812,180.957 90.952,180.219 90.041 C 179.722 89.428,179.404 88.802,179.160 87.957 C 178.538 85.810,178.311 85.269,177.568 84.167 C 177.125 83.509,176.611 82.408,176.260 81.366 C 175.565 79.298,175.202 78.678,174.363 78.122 C 173.862 77.791,173.542 77.332,172.872 75.981 C 172.021 74.264,172.019 74.262,171.827 74.756 C 171.157 76.476,171.170 76.089,171.167 93.667 L 171.163 110.583 170.766 111.417 C 170.548 111.875,170.140 112.494,169.861 112.792 L 169.352 113.333 163.665 113.333 C 159.706 113.333,157.867 113.275,157.614 113.142 C 156.975 112.806,156.265 112.145,155.708 111.366 L 155.167 110.608 155.167 69.905 L 155.167 29.201 155.781 28.662 C 157.094 27.509,157.101 27.508,163.656 27.504 L 169.561 27.500 170.364 28.333 M229.580 27.832 C 231.217 28.300,231.570 28.708,232.194 30.845 C 232.734 32.696,233.013 33.299,233.893 34.523 C 234.206 34.958,234.646 35.939,234.902 36.773 C 235.633 39.155,235.798 39.546,236.574 40.727 C 237.020 41.405,237.546 42.553,237.906 43.633 C 238.234 44.614,238.633 45.613,238.793 45.853 C 238.952 46.092,239.285 46.590,239.531 46.958 C 239.778 47.326,240.246 48.443,240.571 49.440 C 240.904 50.461,241.478 51.761,241.885 52.418 C 242.301 53.089,242.913 54.485,243.329 55.710 C 243.743 56.929,244.397 58.423,244.863 59.210 C 245.309 59.965,245.888 61.262,246.150 62.092 C 246.670 63.746,246.973 64.403,247.647 65.333 C 248.207 66.106,248.506 66.816,249.167 68.944 C 249.535 70.130,249.916 70.956,250.437 71.694 C 250.923 72.384,251.330 73.239,251.612 74.163 C 252.418 76.805,252.930 77.667,253.693 77.667 C 254.244 77.667,255.506 77.294,255.497 77.134 C 255.496 77.106,255.387 76.783,255.255 76.417 C 255.063 75.883,255.013 74.503,255.004 69.500 C 254.997 64.813,254.933 62.875,254.748 61.750 C 254.361 59.393,254.380 29.554,254.769 28.783 C 255.460 27.416,255.021 27.500,261.468 27.500 C 267.892 27.500,267.894 27.500,268.658 28.736 L 269.000 29.289 268.996 70.020 C 268.992 115.611,269.110 111.270,267.838 112.719 L 267.299 113.333 263.024 113.331 L 258.750 113.328 257.349 112.760 C 255.499 112.009,255.126 111.607,254.432 109.616 C 254.121 108.722,253.557 107.515,253.178 106.935 C 252.770 106.307,252.221 105.076,251.825 103.898 C 251.178 101.970,250.900 101.395,249.966 100.061 C 249.719 99.707,249.314 98.704,249.068 97.833 C 248.557 96.027,248.037 94.899,247.494 94.417 C 247.035 94.009,246.454 92.731,246.168 91.500 C 245.827 90.036,245.365 89.005,244.587 87.970 C 243.893 87.046,243.631 86.407,242.841 83.701 C 242.606 82.897,242.299 82.277,241.932 81.868 C 241.256 81.113,240.987 80.589,240.512 79.098 C 240.112 77.843,239.570 76.697,238.932 75.757 C 238.708 75.426,238.211 74.216,237.828 73.068 C 237.335 71.588,236.898 70.632,236.325 69.782 C 235.736 68.909,235.395 68.154,235.069 67.000 C 234.249 64.105,233.875 63.620,232.578 63.772 C 231.455 63.904,231.009 64.258,230.980 65.042 C 230.955 65.732,230.923 65.590,231.366 66.750 C 231.791 67.865,231.873 71.524,232.093 99.215 L 232.185 110.846 231.752 111.793 C 230.986 113.466,231.556 113.333,225.124 113.333 L 219.467 113.333 218.958 112.792 C 218.679 112.494,218.274 111.875,218.060 111.417 L 217.670 110.583 217.668 69.851 L 217.667 29.119 218.476 28.310 L 219.286 27.500 223.852 27.500 C 227.913 27.500,228.546 27.537,229.580 27.832 M316.528 28.110 C 318.163 28.884,318.298 29.277,319.082 35.500 C 319.380 37.864,319.649 38.928,320.359 40.552 C 321.050 42.134,321.431 43.803,321.830 46.990 C 322.096 49.120,322.318 50.160,322.826 51.657 C 323.773 54.448,324.097 55.860,324.653 59.627 C 325.014 62.074,325.270 63.274,325.596 64.036 C 326.245 65.558,326.767 67.654,327.173 70.366 C 327.681 73.758,327.918 74.796,328.561 76.453 C 329.259 78.253,329.531 79.447,330.164 83.481 C 330.787 87.460,330.906 87.981,331.500 89.333 C 332.091 90.680,332.221 91.245,332.757 94.794 C 333.263 98.149,333.882 100.838,334.512 102.417 C 336.106 106.413,336.316 111.226,334.962 112.768 L 334.465 113.333 328.674 113.333 L 322.883 113.333 322.223 112.855 C 320.020 111.259,319.414 109.581,318.762 103.268 C 318.174 97.576,319.061 98.000,307.754 98.000 L 300.322 98.000 299.526 98.404 C 298.436 98.956,298.359 99.081,297.902 101.035 C 297.126 104.357,296.839 105.940,296.586 108.301 C 296.059 113.207,295.811 113.333,286.726 113.333 L 281.006 113.333 280.603 112.539 C 279.638 110.634,279.760 108.766,281.068 105.431 C 281.935 103.219,282.061 102.680,282.494 99.333 C 282.829 96.749,283.296 94.711,283.758 93.817 C 284.154 93.052,284.958 89.473,285.411 86.461 C 285.947 82.898,286.074 82.350,286.686 80.956 C 287.264 79.640,287.673 77.688,288.164 73.905 C 288.542 70.997,288.789 69.969,289.501 68.333 C 290.171 66.797,290.615 64.919,290.915 62.349 C 291.231 59.639,291.353 59.065,292.082 56.833 C 293.050 53.872,293.319 52.697,293.763 49.500 C 294.219 46.210,294.384 45.490,295.046 43.917 C 295.557 42.702,296.062 40.420,296.517 37.273 C 296.767 35.544,297.076 34.267,297.679 32.477 C 298.130 31.135,298.500 29.874,298.500 29.674 C 298.500 29.457,298.866 28.946,299.411 28.401 L 300.321 27.490 307.869 27.537 L 315.417 27.583 316.528 28.110 M308.291 50.452 C 307.554 51.674,306.541 53.942,305.817 55.990 C 305.399 57.171,305.231 58.278,304.915 61.917 C 304.651 64.958,304.205 67.529,303.339 71.000 C 302.561 74.118,302.204 76.259,302.005 79.000 C 301.783 82.046,301.595 83.233,301.142 84.444 L 300.808 85.337 301.165 85.913 C 302.416 87.937,302.796 88.043,308.524 87.955 C 314.331 87.865,314.544 87.820,315.104 86.553 C 315.622 85.381,315.622 85.380,314.754 81.793 C 313.797 77.841,313.587 76.584,313.102 71.917 C 312.816 69.164,312.600 67.801,312.336 67.083 C 311.658 65.238,311.509 64.647,311.248 62.777 C 311.105 61.754,310.878 60.204,310.743 59.333 C 310.607 58.462,310.422 56.873,310.332 55.801 C 310.160 53.769,309.646 50.806,309.284 49.761 L 309.074 49.154 308.291 50.452 M309.585 53.083 C 309.718 53.725,309.940 55.375,310.077 56.750 C 310.843 64.396,311.010 65.539,311.504 66.509 C 312.283 68.035,312.446 68.973,313.168 76.068 C 313.398 78.324,314.103 82.192,314.426 82.964 C 315.377 85.242,315.219 86.093,313.713 86.799 L 312.750 87.250 308.112 87.301 L 303.474 87.353 302.908 86.922 C 302.597 86.684,302.152 86.240,301.919 85.935 L 301.495 85.379 301.822 83.981 C 302.008 83.187,302.227 81.324,302.329 79.667 C 302.428 78.063,302.553 76.487,302.605 76.167 C 302.791 75.031,303.523 72.272,303.759 71.816 C 304.112 71.134,304.951 65.946,305.158 63.167 C 305.509 58.464,305.891 56.567,306.707 55.478 C 306.938 55.169,307.343 54.429,307.607 53.833 C 307.870 53.237,308.307 52.348,308.579 51.857 L 309.072 50.965 309.207 51.441 C 309.282 51.702,309.452 52.442,309.585 53.083 M230.619 59.944 C 230.572 60.021,230.587 60.533,230.653 61.083 L 230.772 62.083 230.907 61.112 C 231.030 60.225,230.863 59.545,230.619 59.944 " stroke="none" fill="#74acfc" fill-rule="evenodd"></path></g></svg>